<svg width="30" height="30" viewBox="0 0 30 30" fill="none" xmlns="http://www.w3.org/2000/svg">
<path d="M28.8714 22.0613H27.0588C26.7389 22.0613 26.4764 21.821 26.4481 21.5024L26.0821 17.3755C26.0178 16.6514 25.7973 15.9694 25.4266 15.3485C25.3023 15.1401 25.0324 15.072 24.8241 15.1964C24.6157 15.3208 24.5476 15.5906 24.6719 15.799C24.9742 16.3054 25.1541 16.8619 25.2066 17.4531L25.5726 21.58C25.6279 22.203 26.0513 22.7026 26.6193 22.8751V23.4393H22.1941C19.5578 23.4393 17.413 21.2945 17.413 18.6582V17.7981C17.413 15.6452 19.1645 13.8937 21.3174 13.8937C22.1458 13.8937 22.9374 14.1501 23.6067 14.6351C23.8033 14.7774 24.0781 14.7337 24.2205 14.5371C24.3629 14.3406 24.3191 14.0659 24.1225 13.9234C23.3022 13.329 22.3322 13.0148 21.3174 13.0148C19.3274 13.0148 17.618 14.2366 16.8982 15.9692L15 17.0652L13.1016 15.9692C12.3819 14.2366 10.6724 13.0148 8.6824 13.0148C7.48393 13.0148 6.33708 13.4604 5.45296 14.2696C4.5689 15.0787 4.02368 16.1817 3.9178 17.3755L3.55171 21.5024C3.52347 21.821 3.26097 22.0613 2.94111 22.0613H1.12845C0.506249 22.0613 0 22.5675 0 23.1897C0 23.812 0.506249 24.3182 1.12845 24.3182H2.94052C2.9407 24.3182 2.94087 24.3182 2.94111 24.3182C2.94128 24.3182 2.94146 24.3182 2.94169 24.3182H3.23431C3.47701 24.3182 3.67376 24.1214 3.67376 23.8787C3.67376 23.6874 3.5513 23.5251 3.38062 23.4648V22.8751C3.94863 22.7026 4.37202 22.203 4.42728 21.58L4.79337 17.4531C4.8798 16.4787 5.32481 15.5783 6.04645 14.9179C6.76809 14.2574 7.70424 13.8937 8.68252 13.8937C10.8354 13.8937 12.5869 15.6452 12.5869 17.7981V18.6582C12.5869 21.2945 10.4421 23.4393 7.80579 23.4393H4.87769C4.63499 23.4393 4.43823 23.636 4.43823 23.8787C4.43823 24.1214 4.63499 24.3182 4.87769 24.3182H6.59331V25.1182H6.28751C6.04481 25.1182 5.84806 25.3149 5.84806 25.5576C5.84806 25.8003 6.04481 25.9971 6.28751 25.9971H8.47369C8.71639 25.9971 8.91315 25.8003 8.91315 25.5576C8.91315 25.3149 8.71639 25.1182 8.47369 25.1182H7.47227V24.3182H7.80579C10.6796 24.3182 13.06 22.1652 13.4189 19.3875L15 18.4747L16.5811 19.3875C16.94 22.1652 19.3204 24.3182 22.1942 24.3182H22.5277V25.1182H21.5263C21.2836 25.1182 21.0869 25.3149 21.0869 25.5576C21.0869 25.8003 21.2836 25.9971 21.5263 25.9971H23.7125C23.9552 25.9971 24.1519 25.8003 24.1519 25.5576C24.1519 25.3149 23.9552 25.1182 23.7125 25.1182H23.4066V24.3182H27.0582C27.0584 24.3182 27.0587 24.3182 27.0588 24.3182C27.059 24.3182 27.0592 24.3182 27.0594 24.3182H28.8715C29.4938 24.3182 30 23.8119 30 23.1897C29.9999 22.5675 29.4937 22.0613 28.8714 22.0613ZM2.50166 23.4393H1.12845C0.990818 23.4393 0.878905 23.3273 0.878905 23.1897C0.878905 23.0521 0.990877 22.9402 1.12845 22.9402H2.50166V23.4393ZM13.4658 18.3456V17.7981C13.4658 17.585 13.4503 17.3756 13.4232 17.1698L14.4627 17.7699L13.4658 18.3456ZM16.5342 17.7981V18.3456L15.5372 17.7699L16.5767 17.1698C16.5496 17.3755 16.5342 17.585 16.5342 17.7981ZM28.8714 23.4393H27.4982V22.9402H28.8714C29.0091 22.9402 29.121 23.0521 29.121 23.1897C29.121 23.3274 29.0091 23.4393 28.8714 23.4393Z" fill="black"/>
<path d="M9.68406 8.69399C9.92219 8.6473 10.0774 8.41632 10.0307 8.17814C9.85287 7.27181 10.1299 6.34486 10.7717 5.69863C11.2936 5.17316 11.9888 4.88306 12.7292 4.88178H12.7341C13.4726 4.88178 14.1669 5.16929 14.6892 5.69166C14.8608 5.86322 15.139 5.86328 15.3107 5.69166C15.8331 5.16929 16.5273 4.88178 17.2658 4.88178H17.2708C18.0112 4.88306 18.7064 5.17316 19.2282 5.69863C20.2988 6.77664 20.2847 8.53884 19.1967 9.62681L15.3989 13.4246C15.2924 13.5312 15.1507 13.5898 15 13.5898C14.8493 13.5898 14.7076 13.5312 14.601 13.4246L10.8032 9.62681C10.7426 9.56622 10.6841 9.50224 10.6294 9.43649C10.474 9.25005 10.1969 9.22479 10.0104 9.3803C9.82398 9.53569 9.79885 9.81278 9.95418 9.99923C10.0259 10.0852 10.1025 10.1691 10.1818 10.2484L13.9795 14.0461C14.2521 14.3187 14.6145 14.4688 15 14.4688C15.3855 14.4688 15.7479 14.3187 16.0204 14.0461L19.8182 10.2484C21.2476 8.81886 21.2627 6.50007 19.8518 5.07935C19.1641 4.38689 18.248 4.00463 17.2723 4.00293H17.2658C16.4325 4.00293 15.6421 4.28066 15 4.79254C14.3578 4.2806 13.5675 4.00293 12.7342 4.00293H12.7277C11.7519 4.00463 10.8358 4.38689 10.1481 5.07941C9.30051 5.93289 8.93418 7.15456 9.1682 8.34747C9.21496 8.58554 9.44623 8.74075 9.68406 8.69399Z" fill="black"/>
<path d="M10.6072 17.7469C10.8499 17.7469 11.0466 17.5501 11.0466 17.3074C11.0466 17.2553 11.089 17.2129 11.1411 17.2129C11.1932 17.2129 11.2355 17.2553 11.2355 17.3074C11.2355 17.5501 11.4323 17.7469 11.675 17.7469C11.9177 17.7469 12.1144 17.5501 12.1144 17.3074C12.1144 16.7707 11.6778 16.334 11.1411 16.334C10.6044 16.334 10.1677 16.7707 10.1677 17.3074C10.1677 17.5501 10.3645 17.7469 10.6072 17.7469Z" fill="black"/>
<path d="M7.31498 22.5841V22.584C7.87894 22.584 8.40916 22.3644 8.80789 21.9656C9.2109 21.5627 9.43051 21.0269 9.42623 20.457C9.42201 19.8871 9.19432 19.3546 8.78516 18.9574C7.97463 18.1706 6.69477 18.1594 5.87135 18.9319C5.44695 19.3301 5.20361 19.8916 5.20361 20.4727V21.6493C5.20361 22.1647 5.62297 22.5841 6.13842 22.5841H7.31498ZM6.08258 21.6492V20.4727C6.08258 20.1285 6.22115 19.8089 6.47275 19.5729C6.70607 19.354 7.01018 19.2449 7.31434 19.2449C7.62594 19.2449 7.93766 19.3595 8.17297 19.588C8.41191 19.8199 8.54486 20.1308 8.54738 20.4634C8.54984 20.7961 8.42164 21.1089 8.18644 21.3441C7.95365 21.5769 7.64422 21.7051 7.31498 21.7051H6.13842C6.1076 21.7051 6.08258 21.68 6.08258 21.6492Z" fill="black"/>
<path d="M18.2266 18.8616H19.4919C19.7346 18.8616 19.9313 18.6649 19.9313 18.4222C19.9313 18.1795 19.7346 17.9827 19.4919 17.9827H18.2266C17.9838 17.9827 17.7871 18.1795 17.7871 18.4222C17.7871 18.6649 17.9838 18.8616 18.2266 18.8616Z" fill="black"/>
<path d="M18.3252 17.7469C18.5679 17.7469 18.7646 17.5501 18.7646 17.3074C18.7646 17.2553 18.807 17.2129 18.859 17.2129C18.9111 17.2129 18.9535 17.2553 18.9535 17.3074C18.9535 17.5501 19.1502 17.7469 19.3929 17.7469C19.6357 17.7469 19.8324 17.5501 19.8324 17.3074C19.8324 16.7707 19.3958 16.334 18.859 16.334C18.3224 16.334 17.8857 16.7707 17.8857 17.3074C17.8857 17.5501 18.0824 17.7469 18.3252 17.7469Z" fill="black"/>
<path d="M10.5083 18.8616H11.7736C12.0163 18.8616 12.213 18.6649 12.213 18.4222C12.213 18.1795 12.0163 17.9827 11.7736 17.9827H10.5083C10.2656 17.9827 10.0688 18.1795 10.0688 18.4222C10.0688 18.6649 10.2656 18.8616 10.5083 18.8616Z" fill="black"/>
<path d="M21.1922 21.9657C21.591 22.3644 22.1212 22.584 22.6851 22.584H23.8616C24.3771 22.584 24.7964 22.1646 24.7964 21.6492V20.4726C24.7964 19.8916 24.553 19.3299 24.1287 18.9318C23.3053 18.1594 22.0254 18.1704 21.2149 18.9573H21.2149C20.8058 19.3545 20.578 19.887 20.5738 20.4569C20.5696 21.0269 20.7892 21.5626 21.1922 21.9657ZM21.8271 19.588C22.0625 19.3595 22.3741 19.2449 22.6857 19.2449C22.9898 19.2449 23.294 19.354 23.5273 19.573C23.7789 19.809 23.9175 20.1285 23.9175 20.4727V21.6493C23.9175 21.6801 23.8924 21.7052 23.8616 21.7052H22.6851C22.3559 21.7052 22.0464 21.577 21.8136 21.3443C21.5784 21.109 21.4502 20.7963 21.4527 20.4636C21.4552 20.1309 21.5882 19.82 21.8271 19.588Z" fill="black"/>
</svg>
