<svg width="30" height="30" viewBox="0 0 30 30" fill="none" xmlns="http://www.w3.org/2000/svg">
<path d="M14.8262 17.4724L12.0493 15.8691V19.6709L14.8262 18.0676C15.0553 17.9353 15.0553 17.6046 14.8262 17.4724Z" fill="#F4D06D"/>
<path d="M4.35556 17.4143L3.98947 21.5412C3.9413 22.0843 3.48632 22.5007 2.94111 22.5007H1.12846C0.74789 22.5007 0.439453 22.8092 0.439453 23.1897C0.439453 23.5703 0.747949 23.8787 1.12846 23.8787H7.80573C10.6889 23.8787 13.0263 21.5414 13.0263 18.6581V17.7981C13.0263 15.399 11.0815 13.4542 8.68246 13.4542C6.43218 13.4543 4.55443 15.1728 4.35556 17.4143Z" fill="#9EDBF5"/>
<path opacity="0.12" d="M1.12846 22.5008C0.74789 22.5008 0.439453 22.8093 0.439453 23.1898C0.439453 23.5703 0.747949 23.8788 1.12846 23.8788H2.94111V22.5007H1.12846V22.5008Z" fill="black"/>
<path d="M11.7736 18.8617H10.5083C10.2656 18.8617 10.0688 18.6649 10.0688 18.4222C10.0688 18.1795 10.2656 17.9828 10.5083 17.9828H11.7736C12.0163 17.9828 12.213 18.1795 12.213 18.4222C12.213 18.6649 12.0163 18.8617 11.7736 18.8617Z" fill="white"/>
<path opacity="0.12" d="M8.47857 19.2727C7.84213 18.6549 6.8185 18.6455 6.17156 19.2524C5.81889 19.5832 5.64258 20.0279 5.64258 20.4727V21.6492C5.64258 21.9228 5.86436 22.1446 6.13793 22.1446H7.31449C7.74234 22.1446 8.17025 21.9813 8.49668 21.6549C9.15556 20.996 9.14953 19.924 8.47857 19.2727Z" fill="black"/>
<path d="M15.1738 17.4724L17.9507 15.8691V19.6709L15.1738 18.0676C14.9447 17.9353 14.9447 17.6046 15.1738 17.4724Z" fill="#F4D06D"/>
<path d="M25.6444 17.4143L26.0105 21.5412C26.0587 22.0843 26.5137 22.5007 27.0589 22.5007H28.8715C29.2521 22.5007 29.5605 22.8092 29.5605 23.1897C29.5605 23.5703 29.252 23.8787 28.8715 23.8787H22.1942C19.311 23.8787 16.9736 21.5414 16.9736 18.6581V17.7981C16.9736 15.399 18.9185 13.4542 21.3175 13.4542C23.5678 13.4543 25.4456 15.1728 25.6444 17.4143Z" fill="#9EDBF5"/>
<path opacity="0.12" d="M28.8717 22.5008C29.2523 22.5008 29.5607 22.8093 29.5607 23.1898C29.5607 23.5703 29.2522 23.8788 28.8717 23.8788H27.0591V22.5007H28.8717V22.5008Z" fill="black"/>
<path d="M19.4919 18.8617H18.2266C17.9838 18.8617 17.7871 18.6649 17.7871 18.4222C17.7871 18.1795 17.9838 17.9828 18.2266 17.9828H19.4919C19.7346 17.9828 19.9313 18.1795 19.9313 18.4222C19.9313 18.6649 19.7346 18.8617 19.4919 18.8617Z" fill="white"/>
<path opacity="0.12" d="M21.521 19.2727C22.1574 18.6549 23.181 18.6455 23.828 19.2524C24.1806 19.5832 24.357 20.0279 24.357 20.4727V21.6492C24.357 21.9228 24.1352 22.1446 23.8616 22.1446H22.685C22.2572 22.1446 21.8293 21.9813 21.5029 21.6549C20.844 20.996 20.85 19.924 21.521 19.2727Z" fill="black"/>
<path d="M14.9997 5.381C13.7455 4.12686 11.7105 4.1295 10.4596 5.38903C9.21155 6.64574 9.23979 8.68527 10.4922 9.93765L14.29 13.7354C14.6819 14.1273 15.3174 14.1273 15.7093 13.7354L19.5072 9.93765C20.7595 8.68527 20.7878 6.64574 19.5397 5.38903C18.2889 4.1295 16.2538 4.12686 14.9997 5.381Z" fill="#ED6EA4"/>
<path opacity="0.12" d="M19.5402 5.3889C19.0508 4.89613 18.4414 4.59578 17.8056 4.48779C18.1743 4.64529 18.5195 4.87486 18.8196 5.17697C20.0676 6.43369 20.0394 8.47321 18.787 9.7256L14.9892 13.5234C14.8182 13.6944 14.6007 13.7908 14.3774 13.8126C14.7714 14.1251 15.3456 14.0995 15.7098 13.7353L19.5076 9.93759C20.76 8.68515 20.7882 6.64562 19.5402 5.3889Z" fill="black"/>
<path d="M17.8857 17.3074C17.8857 17.5501 18.0824 17.7469 18.3252 17.7469C18.5679 17.7469 18.7646 17.5501 18.7646 17.3074C18.7646 17.2553 18.807 17.213 18.859 17.213C18.9111 17.213 18.9535 17.2553 18.9535 17.3074C18.9535 17.5501 19.1502 17.7469 19.3929 17.7469C19.6357 17.7469 19.8324 17.5501 19.8324 17.3074C19.8324 16.7707 19.3957 16.3341 18.859 16.3341C18.3223 16.3341 17.8857 16.7707 17.8857 17.3074ZM9.68406 8.69399C9.92219 8.6473 10.0774 8.41632 10.0307 8.17814C9.85287 7.27181 10.1299 6.34486 10.7717 5.69863C11.2936 5.17316 11.9888 4.88306 12.7292 4.88178H12.7341C13.4726 4.88178 14.1669 5.16929 14.6892 5.69166C14.8608 5.86322 15.139 5.86328 15.3108 5.69166C15.8331 5.16929 16.5273 4.88178 17.2658 4.88178H17.2708C18.0112 4.88306 18.7064 5.17316 19.2282 5.69863C20.2988 6.77664 20.2847 8.53884 19.1967 9.62681L15.3989 13.4246C15.2924 13.5312 15.1507 13.5898 15 13.5898C14.8493 13.5898 14.7076 13.5312 14.601 13.4246L10.8032 9.62681C10.7426 9.56622 10.6841 9.50224 10.6294 9.43649C10.474 9.25005 10.1969 9.22479 10.0104 9.3803C9.82399 9.53569 9.79885 9.81278 9.95418 9.99923C10.0259 10.0852 10.1025 10.1691 10.1818 10.2484L13.9795 14.0461C14.2521 14.3187 14.6145 14.4688 15 14.4688C15.3855 14.4688 15.7479 14.3187 16.0204 14.0461L19.8182 10.2484C21.2476 8.81886 21.2628 6.50007 19.8518 5.07935C19.1641 4.38689 18.248 4.00463 17.2723 4.00293H17.2658C16.4325 4.00293 15.6421 4.28066 15 4.79254C14.3578 4.2806 13.5675 4.00293 12.7342 4.00293H12.7277C11.7519 4.00463 10.8358 4.38689 10.1481 5.07941C9.30051 5.93289 8.93418 7.15456 9.1682 8.34747C9.21496 8.58554 9.44623 8.74075 9.68406 8.69399ZM11.0464 17.3074C11.0464 17.2553 11.0888 17.213 11.1409 17.213C11.193 17.213 11.2353 17.2553 11.2353 17.3074C11.2353 17.5501 11.4321 17.7469 11.6748 17.7469C11.9175 17.7469 12.1142 17.5501 12.1142 17.3074C12.1142 16.7707 11.6776 16.3341 11.1409 16.3341C10.6042 16.3341 10.1675 16.7707 10.1675 17.3074C10.1675 17.5501 10.3643 17.7469 10.607 17.7469C10.8497 17.7469 11.0464 17.5501 11.0464 17.3074ZM21.1922 21.9657C21.5911 22.3644 22.1212 22.584 22.6851 22.584H23.8616C24.3771 22.584 24.7964 22.1647 24.7964 21.6492V20.4727C24.7964 19.8916 24.553 19.33 24.1287 18.9319C23.3053 18.1594 22.0255 18.1705 21.2149 18.9573H21.2149C20.8058 19.3545 20.578 19.8871 20.5738 20.4569C20.5696 21.0269 20.7892 21.5627 21.1922 21.9657ZM21.8271 19.588C21.8271 19.588 21.8271 19.588 21.8272 19.588C22.0626 19.3595 22.3742 19.2449 22.6858 19.2449C22.9899 19.2449 23.294 19.354 23.5273 19.573C23.7789 19.809 23.9175 20.1285 23.9175 20.4728V21.6493C23.9175 21.6802 23.8924 21.7052 23.8616 21.7052H22.6851C22.3559 21.7052 22.0464 21.577 21.8136 21.3443C21.5784 21.109 21.4503 20.7963 21.4527 20.4636C21.4552 20.1309 21.5882 19.82 21.8271 19.588ZM7.31483 22.584C7.87879 22.584 8.40901 22.3644 8.80774 21.9656C9.21074 21.5627 9.43035 21.0269 9.42608 20.457C9.42186 19.8871 9.19416 19.3546 8.785 18.9574C7.97448 18.1706 6.69462 18.1594 5.8712 18.9319C5.44681 19.3301 5.20347 19.8916 5.20347 20.4727V21.6493C5.20347 22.1647 5.62282 22.5841 6.13827 22.5841H7.31483V22.584V22.584ZM6.08243 21.6492V20.4727C6.08243 20.1285 6.221 19.8089 6.47261 19.5729C6.70592 19.354 7.01003 19.2449 7.31419 19.2449C7.62579 19.2449 7.9375 19.3595 8.17282 19.588C8.41176 19.8199 8.54471 20.1308 8.54723 20.4634C8.54969 20.7961 8.42149 21.1089 8.18629 21.3441C7.9535 21.5769 7.64407 21.7051 7.31483 21.7051H6.13827C6.10745 21.7051 6.08243 21.68 6.08243 21.6492ZM28.8714 22.0613H27.0588C26.7389 22.0613 26.4764 21.821 26.4481 21.5024L26.0821 17.3755C26.0178 16.6514 25.7973 15.9694 25.4266 15.3485C25.3023 15.1401 25.0324 15.072 24.8241 15.1964C24.6157 15.3208 24.5476 15.5906 24.6719 15.7989C24.9742 16.3054 25.1541 16.8619 25.2066 17.4531L25.5726 21.58C25.6414 22.3554 26.2803 22.9402 27.0587 22.9402H28.8714C29.009 22.9402 29.121 23.0521 29.121 23.1897C29.121 23.3273 29.009 23.4393 28.8714 23.4393H22.1942C19.5579 23.4393 17.413 21.2945 17.413 18.6581V17.798C17.413 15.6451 19.1646 13.8937 21.3175 13.8937C22.1459 13.8937 22.9375 14.1501 23.6068 14.6351C23.8033 14.7774 24.0781 14.7337 24.2206 14.5371C24.363 14.3406 24.3191 14.0659 24.1226 13.9234C23.3023 13.329 22.3323 13.0147 21.3175 13.0147C19.3275 13.0147 17.6181 14.2366 16.8983 15.9692L15 17.0652L13.1016 15.9692C12.3819 14.2366 10.6724 13.0148 8.6824 13.0148C7.48393 13.0148 6.33708 13.4604 5.45296 14.2695C4.5689 15.0786 4.02368 16.1817 3.9178 17.3755L3.55171 21.5024C3.52347 21.821 3.26097 22.0613 2.94111 22.0613H1.12845C0.506249 22.0613 0 22.5674 0 23.1897C0 23.812 0.506249 24.3182 1.12845 24.3182H3.23425C3.47695 24.3182 3.6737 24.1214 3.6737 23.8787C3.6737 23.636 3.47695 23.4393 3.23425 23.4393H1.12845C0.990818 23.4393 0.878905 23.3273 0.878905 23.1897C0.878905 23.0521 0.990877 22.9402 1.12845 22.9402H2.94111C3.71958 22.9402 4.35843 22.3554 4.42722 21.58L4.79331 17.4531C4.87974 16.4787 5.32476 15.5783 6.04639 14.9179C6.76803 14.2574 7.70418 13.8937 8.68246 13.8937C10.8354 13.8937 12.5869 15.6452 12.5869 17.798V18.6581C12.5869 21.2944 10.442 23.4393 7.80573 23.4393H4.87769C4.63499 23.4393 4.43823 23.636 4.43823 23.8787C4.43823 24.1214 4.63499 24.3182 4.87769 24.3182H6.59331V25.1181H6.28751C6.04481 25.1181 5.84806 25.3149 5.84806 25.5576C5.84806 25.8003 6.04481 25.997 6.28751 25.997H8.47369C8.71639 25.997 8.91315 25.8003 8.91315 25.5576C8.91315 25.3149 8.71639 25.1181 8.47369 25.1181H7.47227V24.3182H7.80579C10.6796 24.3182 13.06 22.1652 13.4189 19.3875L15 18.4747L16.5811 19.3875C16.94 22.1652 19.3204 24.3182 22.1942 24.3182H22.5277V25.1181H21.5263C21.2836 25.1181 21.0869 25.3149 21.0869 25.5576C21.0869 25.8003 21.2836 25.997 21.5263 25.997H23.7125C23.9552 25.997 24.1519 25.8003 24.1519 25.5576C24.1519 25.3149 23.9552 25.1181 23.7125 25.1181H23.4066V24.3182H28.8715C29.4938 24.3182 30 23.8119 30 23.1897C29.9999 22.5674 29.4937 22.0613 28.8714 22.0613ZM13.4658 18.3455V17.7981C13.4658 17.585 13.4503 17.3756 13.4232 17.1697L14.4627 17.7699L13.4658 18.3455ZM16.5342 17.7981V18.3455L15.5372 17.7699L16.5767 17.1697C16.5496 17.3755 16.5342 17.585 16.5342 17.7981Z" fill="black"/>
</svg>
