<svg width="30" height="30" viewBox="0 0 30 30" fill="none" xmlns="http://www.w3.org/2000/svg">
<path d="M25.0626 10.6132C24.3527 10.6132 23.7751 11.1907 23.7751 11.9006C23.7751 12.6106 24.3526 13.1881 25.0626 13.1881C25.7725 13.1881 26.3501 12.6106 26.3501 11.9006C26.3501 11.1908 25.7726 10.6132 25.0626 10.6132ZM25.0626 12.3092C24.8373 12.3092 24.6541 12.1259 24.6541 11.9006C24.6541 11.6754 24.8373 11.4921 25.0626 11.4921C25.2879 11.4921 25.4712 11.6754 25.4712 11.9006C25.4712 12.1259 25.2879 12.3092 25.0626 12.3092Z" fill="black"/>
<path d="M16.4735 5.83966H13.5266C13.2839 5.83966 13.0872 6.03642 13.0872 6.27911C13.0872 6.52181 13.2839 6.71857 13.5266 6.71857H16.4735C16.7162 6.71857 16.9129 6.52181 16.9129 6.27911C16.9129 6.03636 16.7162 5.83966 16.4735 5.83966Z" fill="black"/>
<path d="M29.5605 10.596C29.8033 10.596 30 10.3993 30 10.1566V9.63024C30 8.46282 29.0502 7.51301 27.8828 7.51301H27.5624V6.74415C27.5624 6.24534 27.1566 5.83958 26.6578 5.83958H23.4675C22.9687 5.83958 22.5629 6.2454 22.5629 6.74415V7.51301H20.3799L19.4793 5.04018C19.289 4.51735 18.7872 4.16614 18.2308 4.16614H11.7691C11.2127 4.16614 10.711 4.51741 10.5206 5.04018L9.6201 7.51307H2.11723C0.949746 7.51307 0 8.46282 0 9.63024V17.7468C0 17.9895 0.196758 18.1862 0.439453 18.1862C0.682148 18.1862 0.878906 17.9895 0.878906 17.7468V13.2148H2.74898C3.29326 13.2148 3.73611 13.6576 3.73611 14.2019V19.1449C3.73611 19.6892 3.29326 20.1321 2.74898 20.1321H0.878906V19.9673C0.878906 19.7247 0.682148 19.5279 0.439453 19.5279C0.196758 19.5279 0 19.7247 0 19.9673V23.7166C0 24.884 0.949746 25.8338 2.11723 25.8338H27.8828C29.0502 25.8338 30 24.884 30 23.7166V12.2587C30 12.016 29.8033 11.8192 29.5605 11.8192C29.3178 11.8192 29.1211 12.016 29.1211 12.2587V23.7165C29.1211 24.3993 28.5656 24.9548 27.8828 24.9548H2.11723C1.43443 24.9548 0.878906 24.3994 0.878906 23.7165V21.0109H2.74898C3.77795 21.0109 4.61502 20.1738 4.61502 19.1449V14.2019C4.61502 13.1729 3.77795 12.3359 2.74898 12.3359H0.878906V9.63024C0.878906 8.94745 1.43437 8.39192 2.11723 8.39192H20.0708C20.0713 8.39192 20.0718 8.39204 20.0723 8.39204C20.0732 8.39204 20.074 8.39192 20.0749 8.39192H27.8828C28.5656 8.39192 29.1211 8.94739 29.1211 9.63024V10.1566C29.1211 10.3993 29.3178 10.596 29.5605 10.596ZM10.5555 7.51307L11.3465 5.34088C11.411 5.16393 11.5808 5.04504 11.7691 5.04504H18.2308C18.4192 5.04504 18.589 5.16393 18.6535 5.34094L19.4445 7.51307H10.5555ZM23.4418 7.51307V6.74415C23.4418 6.72997 23.4533 6.71848 23.4674 6.71848H26.6578C26.6719 6.71848 26.6834 6.73002 26.6834 6.74415V7.51301H23.4418V7.51307Z" fill="black"/>
<path d="M11.2785 18.9034L14.1524 21.7773C14.3788 22.0038 14.6799 22.1284 15.0002 22.1284C15.3204 22.1284 15.6215 22.0038 15.848 21.7773L17.6095 20.0157C17.7812 19.8441 17.7812 19.5658 17.6095 19.3942C17.4378 19.2226 17.1596 19.2226 16.988 19.3942L15.2264 21.1558C15.166 21.2163 15.0857 21.2495 15.0002 21.2495C14.9147 21.2495 14.8343 21.2163 14.7739 21.1558L11.9 18.2819C11.1183 17.5002 11.1077 16.2344 11.8764 15.4603C12.2511 15.083 12.7503 14.8747 13.282 14.8737C13.8138 14.8701 14.3135 15.0793 14.6894 15.4553C14.861 15.6268 15.1392 15.6269 15.311 15.4553C15.6869 15.0793 16.1876 14.8752 16.7184 14.8737C17.2501 14.8747 17.7493 15.083 18.124 15.4602C18.8201 16.1613 18.8854 17.2884 18.2759 18.082C18.1281 18.2744 18.1642 18.5503 18.3567 18.6982C18.5493 18.846 18.8251 18.8098 18.9729 18.6173C19.8493 17.4763 19.7525 15.8528 18.7476 14.8409C18.207 14.2966 17.4869 13.9961 16.7199 13.9948H16.7148C16.0884 13.9948 15.4926 14.1946 15.0002 14.5641C14.5078 14.1946 13.9121 13.9948 13.2855 13.9948H13.2804C12.5134 13.9961 11.7934 14.2966 11.2528 14.8409C10.1437 15.9578 10.1552 17.7802 11.2785 18.9034Z" fill="black"/>
<path d="M18.6531 11.1365C18.6531 11.3792 18.8498 11.5759 19.0925 11.5759H19.8186C20.0614 11.5759 20.2581 11.3792 20.2581 11.1365C20.2581 10.8938 20.0614 10.697 19.8186 10.697H19.0925C18.8498 10.697 18.6531 10.8938 18.6531 11.1365Z" fill="black"/>
<path d="M19.4556 10.1945C19.6983 10.1945 19.895 9.99778 19.895 9.75509V9.42895C19.895 9.18626 19.6983 8.9895 19.4556 8.9895C19.2128 8.9895 19.0161 9.18626 19.0161 9.42895V9.75509C19.0161 9.99778 19.2128 10.1945 19.4556 10.1945Z" fill="black"/>
<path d="M15 11.0196C15.1765 11.1485 15.3938 11.2247 15.6286 11.2247C16.2175 11.2247 16.6967 10.7455 16.6967 10.1566C16.6967 9.91386 16.5 9.7171 16.2573 9.7171C16.0145 9.7171 15.8178 9.91386 15.8178 10.1566C15.8178 10.2609 15.7329 10.3458 15.6286 10.3458C15.5242 10.3458 15.4394 10.2609 15.4394 10.1566C15.4394 9.91386 15.2427 9.7171 15 9.7171C14.7573 9.7171 14.5605 9.91386 14.5605 10.1566C14.5605 10.2609 14.4756 10.3458 14.3713 10.3458C14.267 10.3458 14.1821 10.2609 14.1821 10.1566C14.1821 9.91386 13.9854 9.7171 13.7427 9.7171C13.5 9.7171 13.3032 9.91386 13.3032 10.1566C13.3032 10.7455 13.7823 11.2247 14.3713 11.2247C14.6061 11.2247 14.8235 11.1485 15 11.0196Z" fill="black"/>
<path d="M10.1108 20.071L12.9847 22.9449C13.523 23.4832 14.2388 23.7797 15 23.7797C15.7614 23.7797 16.4771 23.4832 17.0153 22.9449L19.8893 20.0711C21.654 18.3062 21.6675 15.4381 19.919 13.6776C19.0648 12.8174 17.9269 12.3437 16.7148 12.3437C16.1182 12.3437 15.5423 12.4565 15 12.6794C14.4576 12.4565 13.8817 12.3437 13.2852 12.3437C12.0731 12.3437 10.9351 12.8174 10.081 13.6775C8.33252 15.4381 8.34587 18.3062 10.1108 20.071ZM10.7047 14.2967C11.3926 13.604 12.309 13.2225 13.2853 13.2225C13.8213 13.2225 14.3361 13.3353 14.815 13.5576C14.9323 13.612 15.0678 13.612 15.185 13.5576C15.664 13.3353 16.1786 13.2225 16.7148 13.2225C17.6909 13.2225 18.6074 13.604 19.2953 14.2968C20.7034 15.7146 20.691 18.0261 19.2677 19.4495L16.3938 22.3234C16.0215 22.6956 15.5265 22.9007 15 22.9007C14.4734 22.9007 13.9784 22.6956 13.6061 22.3233L10.7322 19.4495C9.30892 18.0262 9.2965 15.7147 10.7047 14.2967Z" fill="black"/>
<path d="M9.74219 11.1365C9.74219 11.3792 9.93895 11.5759 10.1816 11.5759H10.9077C11.1504 11.5759 11.3472 11.3792 11.3472 11.1365C11.3472 10.8938 11.1504 10.697 10.9077 10.697H10.1816C9.93895 10.697 9.74219 10.8938 9.74219 11.1365Z" fill="black"/>
<path d="M10.5444 10.1945C10.7871 10.1945 10.9839 9.99778 10.9839 9.75509V9.42895C10.9839 9.18626 10.7871 8.9895 10.5444 8.9895C10.3017 8.9895 10.105 9.18626 10.105 9.42895V9.75509C10.105 9.99778 10.3017 10.1945 10.5444 10.1945Z" fill="black"/>
<path d="M23.7751 14.8292C23.7751 15.5392 24.3526 16.1167 25.0626 16.1167C25.7725 16.1167 26.3501 15.5392 26.3501 14.8292C26.3501 14.1193 25.7726 13.5417 25.0626 13.5417C24.3527 13.5417 23.7751 14.1193 23.7751 14.8292ZM25.4712 14.8292C25.4712 15.0545 25.2879 15.2378 25.0626 15.2378C24.8373 15.2378 24.6541 15.0545 24.6541 14.8292C24.6541 14.6039 24.8373 14.4207 25.0626 14.4207C25.2879 14.4207 25.4712 14.6039 25.4712 14.8292Z" fill="black"/>
</svg>
