<svg width="30" height="30" viewBox="0 0 30 30" fill="none" xmlns="http://www.w3.org/2000/svg">
<path d="M18.2308 4.60547H11.7691C11.3953 4.60547 11.0615 4.8392 10.9336 5.19041L9.92773 7.95234H20.0722L19.0664 5.19047C18.9384 4.83926 18.6046 4.60547 18.2308 4.60547Z" fill="#ED6EA4"/>
<path d="M27.8828 7.95251H2.11723C1.19062 7.95251 0.439453 8.70369 0.439453 9.63029V23.7166C0.439453 24.6432 1.19062 25.3944 2.11723 25.3944H27.8828C28.8094 25.3944 29.5605 24.6432 29.5605 23.7166V9.63023C29.5605 8.70363 28.8094 7.95251 27.8828 7.95251Z" fill="#394049"/>
<path opacity="0.12" d="M27.8828 7.95251H26.0679C26.9945 7.95251 27.7456 8.70369 27.7456 9.63029V23.7166C27.7456 24.6432 26.9945 25.3944 26.0679 25.3944H27.8828C28.8094 25.3944 29.5605 24.6432 29.5605 23.7166V9.63023C29.5605 8.70363 28.8094 7.95251 27.8828 7.95251Z" fill="black"/>
<path d="M14.9998 23.3403C14.3559 23.3403 13.7505 23.0895 13.2952 22.6342L10.4213 19.7604C8.82723 18.1663 8.81434 15.5764 10.3926 13.9872C11.1637 13.2108 12.1909 12.7832 13.285 12.7832C13.8872 12.7832 14.4694 12.9129 14.9998 13.159C15.5302 12.9129 16.1124 12.7832 16.7146 12.7832C17.8087 12.7832 18.8359 13.2108 19.607 13.9872C21.1852 15.5764 21.1724 18.1662 19.5782 19.7604L16.7044 22.6342C16.2491 23.0894 15.6437 23.3403 14.9998 23.3403Z" fill="white"/>
<path d="M15.0001 15.1446C14.051 14.1956 12.5111 14.1976 11.5645 15.1507C10.6201 16.1017 10.6415 17.6451 11.5892 18.5928L14.463 21.4666C14.7596 21.7632 15.2405 21.7632 15.5371 21.4666L18.4109 18.5928C19.3586 17.6451 19.38 16.1017 18.4356 15.1507C17.4891 14.1975 15.9491 14.1955 15.0001 15.1446Z" fill="#9EDBF5"/>
<path opacity="0.12" d="M18.4355 15.1508C18.0652 14.7779 17.604 14.5506 17.123 14.4689C17.4019 14.5881 17.6632 14.7618 17.8903 14.9904C18.8347 15.9414 18.8133 17.4848 17.8656 18.4324L14.9918 21.3063C14.8623 21.4357 14.6978 21.5086 14.5288 21.5251C14.8269 21.7616 15.2615 21.7422 15.537 21.4667L18.4109 18.5928C19.3586 17.6451 19.38 16.1017 18.4355 15.1508Z" fill="black"/>
<path d="M26.6574 6.27905H23.4671C23.2103 6.27905 23.002 6.48729 23.002 6.74417V7.95249H27.1226V6.74417C27.1226 6.48729 26.9143 6.27905 26.6574 6.27905Z" fill="#ED6EA4"/>
<path opacity="0.12" d="M27.1233 7.16064H23.0024V7.95225H27.1233V7.16064Z" fill="black"/>
<path opacity="0.12" d="M19.7839 7.16089H10.216L9.92773 7.95254H20.0722L19.7839 7.16089Z" fill="black"/>
<path d="M16.4732 6.71851H13.5264C13.2837 6.71851 13.0869 6.52175 13.0869 6.27905C13.0869 6.03636 13.2837 5.8396 13.5264 5.8396H16.4732C16.716 5.8396 16.9127 6.03636 16.9127 6.27905C16.9127 6.52175 16.716 6.71851 16.4732 6.71851Z" fill="white"/>
<path d="M2.74898 20.5715H0.439453V12.7754H2.74898C3.53684 12.7754 4.17557 13.4141 4.17557 14.202V19.145C4.17557 19.9329 3.53684 20.5715 2.74898 20.5715Z" fill="#FFABCA"/>
<path d="M25.0629 12.7489C25.5312 12.7489 25.9109 12.3692 25.9109 11.9009C25.9109 11.4325 25.5312 11.0529 25.0629 11.0529C24.5945 11.0529 24.2148 11.4325 24.2148 11.9009C24.2148 12.3692 24.5945 12.7489 25.0629 12.7489Z" fill="#FFABCA"/>
<path d="M25.0629 15.6775C25.5312 15.6775 25.9109 15.2978 25.9109 14.8295C25.9109 14.3611 25.5312 13.9814 25.0629 13.9814C24.5945 13.9814 24.2148 14.3611 24.2148 14.8295C24.2148 15.2978 24.5945 15.6775 25.0629 15.6775Z" fill="#ED6EA4"/>
<path d="M10.5444 10.1947C10.3017 10.1947 10.105 9.99791 10.105 9.75521V9.42908C10.105 9.18638 10.3017 8.98962 10.5444 8.98962C10.7871 8.98962 10.9839 9.18638 10.9839 9.42908V9.75521C10.9839 9.99791 10.7872 10.1947 10.5444 10.1947Z" fill="white"/>
<path d="M15.6286 11.2247C15.3938 11.2247 15.1764 11.1486 15 11.0196C14.8235 11.1486 14.6061 11.2247 14.3713 11.2247C13.7824 11.2247 13.3032 10.7455 13.3032 10.1566C13.3032 9.91392 13.5 9.71716 13.7427 9.71716C13.9854 9.71716 14.1821 9.91392 14.1821 10.1566C14.1821 10.2609 14.267 10.3458 14.3713 10.3458C14.4756 10.3458 14.5605 10.2609 14.5605 10.1566C14.5605 9.91392 14.7573 9.71716 15 9.71716C15.2427 9.71716 15.4394 9.91392 15.4394 10.1566C15.4394 10.2609 15.5243 10.3458 15.6286 10.3458C15.7329 10.3458 15.8178 10.2609 15.8178 10.1566C15.8178 9.91392 16.0145 9.71716 16.2573 9.71716C16.5 9.71716 16.6967 9.91392 16.6967 10.1566C16.6967 10.7457 16.2175 11.2247 15.6286 11.2247Z" fill="white"/>
<path d="M19.4556 10.1947C19.2128 10.1947 19.0161 9.99791 19.0161 9.75521V9.42908C19.0161 9.18638 19.2128 8.98962 19.4556 8.98962C19.6983 8.98962 19.895 9.18638 19.895 9.42908V9.75521C19.895 9.99791 19.6983 10.1947 19.4556 10.1947Z" fill="white"/>
<path d="M10.9072 11.5759H10.1812C9.93846 11.5759 9.7417 11.3792 9.7417 11.1365C9.7417 10.8938 9.93846 10.697 10.1812 10.697H10.9072C11.1499 10.697 11.3467 10.8938 11.3467 11.1365C11.3467 11.3792 11.1499 11.5759 10.9072 11.5759Z" fill="#FFABCA"/>
<path d="M19.8184 11.5759H19.0923C18.8495 11.5759 18.6528 11.3792 18.6528 11.1365C18.6528 10.8938 18.8495 10.697 19.0923 10.697H19.8184C20.0611 10.697 20.2578 10.8938 20.2578 11.1365C20.2578 11.3792 20.0611 11.5759 19.8184 11.5759Z" fill="#FFABCA"/>
<path d="M16.7148 12.3438C16.1183 12.3438 15.5423 12.4566 15 12.6795C14.4577 12.4566 13.8817 12.3438 13.2853 12.3438C12.0731 12.3438 10.9352 12.8174 10.081 13.6775C8.3325 15.4382 8.34586 18.3063 10.1108 20.0711L12.9846 22.945C13.523 23.4833 14.2387 23.7798 14.9999 23.7798C15.7613 23.7798 16.477 23.4833 17.0153 22.945L19.8892 20.0712C21.654 18.3063 21.6674 15.4382 19.9189 13.6777C19.0648 12.8174 17.9269 12.3438 16.7148 12.3438ZM19.2677 19.4496L16.3938 22.3235C16.0215 22.6958 15.5266 22.9008 15 22.9008C14.4735 22.9008 13.9785 22.6958 13.6061 22.3235L10.7323 19.4496C9.30891 18.0263 9.29648 15.7147 10.7047 14.2968C11.3926 13.6041 12.309 13.2226 13.2853 13.2226C13.8213 13.2226 14.3361 13.3354 14.815 13.5577C14.9323 13.6121 15.0677 13.6121 15.185 13.5577C15.664 13.3354 16.1786 13.2226 16.7147 13.2226C17.6909 13.2226 18.6074 13.6041 19.2953 14.2969C20.7035 15.7147 20.6911 18.0263 19.2677 19.4496ZM29.5605 10.596C29.8033 10.596 30 10.3993 30 10.1566V9.63024C30 8.46282 29.0502 7.51301 27.8828 7.51301H27.5624V6.74415C27.5624 6.24534 27.1566 5.83958 26.6578 5.83958H23.4675C22.9687 5.83958 22.5629 6.2454 22.5629 6.74415V7.51301H20.3799L19.4793 5.04018C19.289 4.51735 18.7872 4.16614 18.2308 4.16614H11.7691C11.2127 4.16614 10.711 4.51741 10.5206 5.04018L9.6201 7.51307H2.11723C0.949746 7.51307 0 8.46282 0 9.63024V17.7468C0 17.9895 0.196758 18.1862 0.439453 18.1862C0.682148 18.1862 0.878906 17.9895 0.878906 17.7468V13.2148H2.74898C3.29326 13.2148 3.73611 13.6576 3.73611 14.2019V19.1449C3.73611 19.6892 3.29326 20.1321 2.74898 20.1321H0.878906V19.9673C0.878906 19.7247 0.682148 19.5279 0.439453 19.5279C0.196758 19.5279 0 19.7247 0 19.9673V23.7166C0 24.884 0.949746 25.8338 2.11723 25.8338H27.8828C29.0502 25.8338 30 24.884 30 23.7166V12.2587C30 12.016 29.8033 11.8192 29.5605 11.8192C29.3178 11.8192 29.1211 12.016 29.1211 12.2587V23.7165C29.1211 24.3993 28.5656 24.9548 27.8828 24.9548H2.11723C1.43443 24.9548 0.878906 24.3994 0.878906 23.7165V21.0109H2.74898C3.77795 21.0109 4.61502 20.1738 4.61502 19.1449V14.2019C4.61502 13.1729 3.77795 12.3359 2.74898 12.3359H0.878906V9.63024C0.878906 8.94745 1.43437 8.39192 2.11723 8.39192H20.0708C20.0713 8.39192 20.0718 8.39204 20.0723 8.39204C20.0732 8.39204 20.074 8.39192 20.0749 8.39192H27.8828C28.5656 8.39192 29.1211 8.94739 29.1211 9.63024V10.1566C29.1211 10.3993 29.3178 10.596 29.5605 10.596ZM10.5555 7.51307L11.3465 5.34094C11.411 5.16399 11.5808 5.0451 11.7691 5.0451H18.2308C18.4192 5.0451 18.589 5.16399 18.6535 5.341L19.4445 7.51313H10.5555V7.51307ZM26.6835 7.51307H23.4418V6.7442C23.4418 6.73002 23.4533 6.71854 23.4674 6.71854H26.6578C26.6719 6.71854 26.6834 6.73008 26.6834 6.7442V7.51307H26.6835ZM16.7197 13.9949H16.7146C16.0882 13.9949 15.4924 14.1946 15 14.5641C14.5076 14.1946 13.9119 13.9949 13.2854 13.9949H13.2803C12.5133 13.9962 11.7932 14.2967 11.2526 14.841C10.1436 15.9578 10.1551 17.7802 11.2784 18.9034L14.1523 21.7773C14.3787 22.0037 14.6798 22.1284 15.0001 22.1284C15.3203 22.1284 15.6214 22.0037 15.8479 21.7773L17.6094 20.0156C17.781 19.844 17.781 19.5657 17.6094 19.3942C17.4377 19.2226 17.1595 19.2226 16.9879 19.3942L15.2263 21.1557C15.1659 21.2162 15.0855 21.2495 15.0001 21.2495C14.9146 21.2495 14.8342 21.2162 14.7738 21.1557L11.8999 18.2819C11.1182 17.5001 11.1076 16.2343 11.8763 15.4603C12.251 15.0829 12.7502 14.8746 13.2819 14.8737C13.8137 14.8701 14.3133 15.0793 14.6893 15.4552C14.8609 15.6268 15.1391 15.6268 15.3108 15.4552C15.6868 15.0792 16.1875 14.8751 16.7183 14.8737C17.2499 14.8746 17.7492 15.0829 18.1239 15.4603C18.82 16.1612 18.8853 17.2883 18.2757 18.082C18.128 18.2745 18.1641 18.5503 18.3566 18.6982C18.5492 18.846 18.825 18.8098 18.9728 18.6173C19.8492 17.4763 19.7524 15.8528 18.7475 14.8409C18.2068 14.2967 17.4867 13.9962 16.7197 13.9949ZM25.0626 13.5418C24.3527 13.5418 23.7751 14.1193 23.7751 14.8293C23.7751 15.5392 24.3526 16.1167 25.0626 16.1167C25.7725 16.1167 26.3501 15.5392 26.3501 14.8293C26.3501 14.1193 25.7726 13.5418 25.0626 13.5418ZM25.0626 15.2378C24.8373 15.2378 24.654 15.0545 24.654 14.8292C24.654 14.6039 24.8373 14.4206 25.0626 14.4206C25.2879 14.4206 25.4712 14.6039 25.4712 14.8292C25.4712 15.0545 25.2879 15.2378 25.0626 15.2378ZM25.0626 10.6132C24.3527 10.6132 23.7751 11.1907 23.7751 11.9006C23.7751 12.6106 24.3526 13.1881 25.0626 13.1881C25.7725 13.1881 26.3501 12.6106 26.3501 11.9006C26.3501 11.1908 25.7726 10.6132 25.0626 10.6132ZM25.0626 12.3092C24.8373 12.3092 24.654 12.1259 24.654 11.9006C24.654 11.6754 24.8373 11.4921 25.0626 11.4921C25.2879 11.4921 25.4712 11.6754 25.4712 11.9006C25.4712 12.1259 25.2879 12.3092 25.0626 12.3092Z" fill="black"/>
</svg>
