<svg width="30" height="30" viewBox="0 0 30 30" fill="none" xmlns="http://www.w3.org/2000/svg">
<g clip-path="url(#clip0)">
<path d="M10.6787 15.7919H11.4075C11.6503 15.7919 11.847 15.5952 11.847 15.3524C11.847 15.1097 11.6503 14.913 11.4075 14.913H10.6787C10.436 14.913 10.2393 15.1097 10.2393 15.3524C10.2393 15.5952 10.436 15.7919 10.6787 15.7919Z" fill="black"/>
<path d="M10.9917 13.9658C10.9917 13.9374 11.0148 13.9143 11.0431 13.9143C11.0714 13.9143 11.0945 13.9374 11.0945 13.9658C11.0945 14.2085 11.2912 14.4052 11.534 14.4052C11.7767 14.4052 11.9734 14.2085 11.9734 13.9658C11.9734 13.4528 11.5561 13.0354 11.0431 13.0354C10.5302 13.0354 10.1128 13.4528 10.1128 13.9658C10.1128 14.2085 10.3095 14.4052 10.5522 14.4052C10.7949 14.4052 10.9917 14.2085 10.9917 13.9658Z" fill="black"/>
<path d="M29.9061 10.0715C29.6129 9.26578 28.7189 8.84894 27.913 9.14221L24.4066 10.4184C24.2208 10.1579 24.012 9.90891 23.7796 9.67483C22.6375 8.52475 21.1159 7.88982 19.4953 7.88707C19.4916 7.88707 19.4883 7.88701 19.4846 7.88701C18.0104 7.88701 16.6169 8.41043 15.5158 9.36961C14.4147 8.41031 13.0214 7.88707 11.5471 7.88707H11.5363C10.2969 7.88924 9.11563 8.26148 8.11754 8.95078L7.37246 8.2057V5.62986C7.37246 5.17974 7.1972 4.75663 6.87892 4.43829L6.30974 3.86911C6.13806 3.69755 5.85986 3.69755 5.68824 3.86911C5.51662 4.04079 5.51662 4.31899 5.68824 4.49062L6.25742 5.0598C6.4097 5.21208 6.49355 5.41452 6.49355 5.62986V7.32673L3.74491 4.5781V2.54723L4.64081 3.44319C4.81249 3.61475 5.0907 3.61475 5.26232 3.44319C5.43394 3.27151 5.43394 2.99331 5.26232 2.82169L4.10902 1.66832C3.90001 1.45938 3.58858 1.3975 3.31548 1.51053C3.04243 1.62368 2.866 1.8877 2.866 2.18319V4.32081H0.728442C0.432895 4.32081 0.168871 4.49724 0.0557846 4.77028C-0.0573016 5.04333 0.00463213 5.35482 0.213578 5.56382L2.98349 8.33373C3.30183 8.65201 3.72499 8.82726 4.17505 8.82726H6.75101L7.42853 9.50479C7.36888 9.56027 7.30994 9.61676 7.25217 9.67488C7.01972 9.90897 6.81095 10.1579 6.62515 10.4184L3.11878 9.14221C2.72854 9.00018 2.30632 9.01869 1.92973 9.19412C1.55333 9.36967 1.2678 9.68127 1.12571 10.0716C0.832446 10.8772 1.24928 11.7714 2.05501 12.0648L2.4504 12.2087C2.2847 12.3698 2.15614 12.5677 2.07469 12.7913C1.78149 13.597 2.19839 14.4911 3.00405 14.7844L3.52214 14.9729C3.35638 15.1341 3.22782 15.332 3.14644 15.5556C2.85317 16.3613 3.27001 17.2554 4.07573 17.5488L7.11342 18.6543C7.36683 18.7466 7.62934 18.8112 7.8957 18.8478L9.66254 20.6146C9.83422 20.7862 10.1124 20.7862 10.284 20.6146C10.4557 20.4429 10.4557 20.1647 10.284 19.9931L7.93185 17.6408C5.89783 15.6069 5.87269 12.3113 7.87578 10.2943C8.00639 10.1628 8.1432 10.0398 8.28488 9.92432C8.32315 9.90422 8.359 9.87809 8.39117 9.84598C8.39703 9.84012 8.40219 9.83391 8.40764 9.82781C9.30254 9.14162 10.391 8.76814 11.538 8.76615H11.5472C12.929 8.76615 14.2279 9.3041 15.2052 10.2814C15.3769 10.453 15.6551 10.453 15.8267 10.2814C16.804 9.30398 18.1028 8.76615 19.4847 8.76615H19.4939C20.8791 8.76849 22.1797 9.31125 23.1561 10.2943C25.1591 12.3113 25.1339 15.6069 23.1 17.6409L16.4481 24.2926C15.9342 24.8066 15.0976 24.8066 14.5837 24.2926L11.5602 21.2691C11.3885 21.0975 11.1103 21.0975 10.9387 21.2691C10.767 21.4408 10.767 21.719 10.9387 21.8906L13.9622 24.9142C14.3906 25.3425 14.9532 25.5567 15.516 25.5567C16.0786 25.5567 16.6413 25.3425 17.0697 24.9142L19.9538 22.03L21.7538 23.8301C21.4438 23.9517 21.1594 24.1371 20.9173 24.3801C20.4558 24.8432 20.2029 25.4583 20.2052 26.1122C20.2097 27.4538 21.3148 28.5452 22.6685 28.5452H26.0241C26.6121 28.5452 27.0905 28.0668 27.0905 27.4787V26.0743C27.0905 25.8315 26.8938 25.6348 26.6511 25.6348C26.4084 25.6348 26.2116 25.8315 26.2116 26.0743V27.4787C26.2116 27.5821 26.1275 27.6662 26.0241 27.6662H22.6685C21.7978 27.6662 21.0871 26.9677 21.0841 26.1091C21.0827 25.6906 21.2445 25.2969 21.5399 25.0005C21.8352 24.7042 22.2283 24.5409 22.6468 24.5409C22.6612 24.5409 22.6757 24.5401 22.6901 24.5387C22.6969 24.5381 22.7034 24.5368 22.71 24.5359C22.7175 24.5348 22.725 24.5339 22.7325 24.5324C22.7402 24.5309 22.7476 24.5288 22.7551 24.5269C22.7615 24.5253 22.7679 24.5239 22.7742 24.522C22.7816 24.5198 22.7887 24.517 22.7958 24.5144C22.8022 24.5121 22.8085 24.5101 22.8148 24.5075C22.8216 24.5047 22.8281 24.5014 22.8346 24.4983C22.841 24.4953 22.8475 24.4925 22.8538 24.4891C22.8601 24.4857 22.866 24.4819 22.8721 24.4783C22.8784 24.4745 22.8847 24.471 22.8908 24.4669C22.8973 24.4626 22.9033 24.4578 22.9096 24.4531C22.9149 24.4492 22.9203 24.4455 22.9254 24.4412C22.9349 24.4334 22.944 24.4251 22.9527 24.4166C22.9543 24.415 22.956 24.4138 22.9576 24.4122C22.9592 24.4105 22.9607 24.4087 22.9622 24.407C22.9707 24.3983 22.9789 24.3894 22.9866 24.3801C22.9911 24.3746 22.995 24.3688 22.9993 24.3631C23.0036 24.3573 23.0082 24.3516 23.0122 24.3455C23.0166 24.339 23.0204 24.3323 23.0243 24.3256C23.0277 24.32 23.0313 24.3144 23.0344 24.3086C23.038 24.3019 23.041 24.2949 23.0443 24.2881C23.0471 24.282 23.0502 24.2759 23.0528 24.2697C23.0556 24.2629 23.0579 24.2561 23.0603 24.2492C23.0627 24.2425 23.0653 24.2359 23.0674 24.2291C23.0695 24.2222 23.071 24.2152 23.0727 24.2082C23.0744 24.2012 23.0764 24.1944 23.0778 24.1875C23.0794 24.1792 23.0804 24.1709 23.0816 24.1626C23.0824 24.1567 23.0835 24.1509 23.0841 24.145C23.0856 24.1305 23.0863 24.1159 23.0863 24.1013C23.0864 23.6829 23.2496 23.2899 23.546 22.9946C23.841 22.7005 24.2326 22.5388 24.649 22.5388H24.6545C25.5131 22.5418 26.2117 23.2526 26.2117 24.1233V24.3751C26.2117 24.6178 26.4084 24.8145 26.6511 24.8145C26.8939 24.8145 27.0906 24.6178 27.0906 24.3751V24.1233C27.0906 22.7696 25.9992 21.6645 24.6576 21.6598C24.0058 21.6564 23.3886 21.9105 22.9255 22.3719C22.6825 22.6141 22.4971 22.8986 22.3755 23.2085L20.5754 21.4085L23.1363 18.8476C23.4025 18.8111 23.665 18.7465 23.9185 18.6542L26.9562 17.5487C27.762 17.2553 28.1788 16.3612 27.8855 15.5555C27.8041 15.3319 27.6756 15.134 27.5098 14.9728L28.0279 14.7843C28.4181 14.6422 28.7297 14.3567 28.9054 13.9802C29.0809 13.6038 29.0994 13.1816 28.9573 12.7913C28.8758 12.5676 28.7473 12.3698 28.5816 12.2086L28.977 12.0647C29.7824 11.7714 30.1993 10.8772 29.9061 10.0715ZM4.17505 7.9483C3.95972 7.9483 3.75722 7.86439 3.60499 7.71216L1.09243 5.19966H3.12335L5.87205 7.9483H4.17505ZM6.71697 17.5746L4.37638 16.7227C4.02605 16.5952 3.84482 16.2065 3.97232 15.8562C4.03407 15.6865 4.15823 15.551 4.32189 15.4747C4.48548 15.3983 4.66906 15.3904 4.83874 15.4521C5.06679 15.5349 5.31898 15.4174 5.40201 15.1895C5.48503 14.9614 5.36744 14.7093 5.13939 14.6262C5.13857 14.6259 5.13786 14.6257 5.13704 14.6254L3.3047 13.9583C2.95436 13.8308 2.77313 13.4421 2.90063 13.0919C2.96239 12.9222 3.08655 12.7867 3.25026 12.7103C3.41392 12.6339 3.59743 12.626 3.76712 12.6878C3.9954 12.7706 4.24736 12.6531 4.33038 12.4252C4.41341 12.1971 4.29581 11.9449 4.06776 11.8619L2.35565 11.2388C2.00532 11.1113 1.82409 10.7225 1.95159 10.3722C2.01335 10.2025 2.13751 10.0671 2.30116 9.9907C2.46475 9.91436 2.64839 9.90639 2.81808 9.96815L6.16127 11.185C5.13751 13.2065 5.32513 15.6989 6.71697 17.5746ZM28.6761 11.2387L26.964 11.8618C26.7359 11.9449 26.6184 12.1971 26.7014 12.4251C26.7844 12.6531 27.0363 12.7706 27.2647 12.6877C27.4344 12.6259 27.6179 12.6339 27.7816 12.7103C27.9452 12.7866 28.0694 12.9221 28.1312 13.0918C28.193 13.2615 28.1849 13.445 28.1086 13.6087C28.0322 13.7724 27.8968 13.8965 27.7271 13.9583L25.8939 14.6255C25.8934 14.6257 25.8929 14.6259 25.8923 14.6261C25.6642 14.7092 25.5467 14.9613 25.6297 15.1894C25.7127 15.4175 25.9649 15.5348 26.193 15.452L26.1942 15.4516C26.3635 15.3902 26.5467 15.3983 26.71 15.4746C26.8736 15.5509 26.9978 15.6863 27.0595 15.8561C27.1871 16.2064 27.0058 16.5951 26.6555 16.7226L24.3149 17.5744C25.7067 15.6988 25.8943 13.2063 24.8706 11.1848L28.2138 9.96797C28.3835 9.90615 28.5669 9.91412 28.7307 9.99053C28.8943 10.0669 29.0185 10.2023 29.0803 10.372C29.2077 10.7225 29.0265 11.1112 28.6761 11.2387Z" fill="black"/>
<path d="M19.9885 14.4052C20.2313 14.4052 20.428 14.2085 20.428 13.9658V13.6384C20.428 13.3956 20.2313 13.1989 19.9885 13.1989C19.7458 13.1989 19.5491 13.3956 19.5491 13.6384V13.9658C19.5491 14.2085 19.7458 14.4052 19.9885 14.4052Z" fill="black"/>
<path d="M19.1846 15.3524C19.1846 15.5952 19.3813 15.7919 19.624 15.7919H20.3529C20.5956 15.7919 20.7923 15.5952 20.7923 15.3524C20.7923 15.1097 20.5956 14.913 20.3529 14.913H19.624C19.3813 14.913 19.1846 15.1097 19.1846 15.3524Z" fill="black"/>
<path d="M15.5158 15.233C15.6928 15.3627 15.9111 15.4393 16.1469 15.4393C16.7372 15.4393 17.2175 14.9591 17.2175 14.3687C17.2175 14.126 17.0208 13.9293 16.778 13.9293C16.5353 13.9293 16.3386 14.126 16.3386 14.3687C16.3386 14.4744 16.2526 14.5603 16.1469 14.5603C16.0412 14.5603 15.9553 14.4744 15.9553 14.3687C15.9553 14.126 15.7586 13.9293 15.5158 13.9293C15.2731 13.9293 15.0764 14.126 15.0764 14.3687C15.0764 14.4744 14.9904 14.5603 14.8847 14.5603C14.7791 14.5603 14.6931 14.4744 14.6931 14.3687C14.6931 14.126 14.4964 13.9293 14.2537 13.9293C14.0109 13.9293 13.8142 14.126 13.8142 14.3687C13.8142 14.959 14.2944 15.4393 14.8847 15.4393C15.1204 15.4393 15.3387 15.3627 15.5158 15.233Z" fill="black"/>
</g>
<defs>
<clipPath id="clip0">
<rect width="30" height="30" fill="white"/>
</clipPath>
</defs>
</svg>
