<svg width="31" height="31" viewBox="0 0 31 31" fill="none" xmlns="http://www.w3.org/2000/svg">
<g clip-path="url(#clip0)">
<path d="M28.9989 9.87375C29.5971 9.65603 30.2586 9.96445 30.4763 10.5627C30.694 11.1609 30.3856 11.8223 29.7873 12.0401L28.0182 12.684C28.6164 12.4662 29.2778 12.7747 29.4956 13.3729C29.7133 13.9711 29.4049 14.6326 28.8066 14.8503L26.9107 15.5404C27.5089 15.3227 28.1704 15.6311 28.3881 16.2294C28.6058 16.8276 28.2974 17.489 27.6992 17.7068L24.5603 18.8492C22.7656 19.5024 20.7812 18.5771 20.1279 16.7824C19.4748 14.9877 20.4001 13.0033 22.1948 12.3501L28.9989 9.87375Z" fill="#EAEAEA"/>
<path opacity="0.12" d="M25.8858 11.0068L22.1948 12.3502C20.4001 13.0034 19.4747 14.9879 20.1279 16.7825C20.7811 18.5772 22.7656 19.5026 24.5603 18.8493L25.3589 18.5587C27.0801 16.3642 27.2591 13.3465 25.8858 11.0068Z" fill="black"/>
<path d="M7.16409 8.66746H4.31427C3.97285 8.66746 3.64547 8.53184 3.40407 8.29044L0.541841 5.42821C0.353904 5.24027 0.486986 4.91901 0.752726 4.91901H3.4157L7.16409 8.66746Z" fill="#EAEAEA"/>
<path d="M7.16409 8.66746H4.31427C3.97285 8.66746 3.64547 8.53184 3.40407 8.29044L0.541841 5.42821C0.353904 5.24027 0.486986 4.91901 0.752726 4.91901H3.4157L7.16409 8.66746Z" fill="#EAEAEA"/>
<path opacity="0.12" d="M6.07609 8.66746L2.32764 4.91901H3.4156L7.16406 8.66746H6.07609Z" fill="black"/>
<path d="M7.16392 8.66756V5.81768C7.16392 5.47632 7.0283 5.14888 6.7869 4.90748L3.92473 2.04525C3.73685 1.85737 3.41553 1.99045 3.41553 2.25619V4.91917L7.16392 8.66756Z" fill="#EAEAEA"/>
<path d="M7.16392 8.66746V5.81758C7.16392 5.47622 7.0283 5.14878 6.78351 4.90399L3.92134 2.04176C3.73679 1.85727 3.41553 1.99035 3.41553 2.25603V4.919L7.16392 8.66746Z" fill="#EAEAEA"/>
<path opacity="0.12" d="M7.16398 7.57942L3.41553 3.83096V4.91899L7.16398 8.66745V7.57942Z" fill="black"/>
<path d="M23.7752 25.7327C23.659 25.7327 23.5427 25.6884 23.454 25.5998L3.09443 5.24015C2.91709 5.06274 2.91709 4.77527 3.09443 4.59793C3.27183 4.42065 3.55931 4.42065 3.73665 4.59793L24.0963 24.9575C24.2737 25.1349 24.2737 25.4224 24.0963 25.5998C24.0076 25.6883 23.8914 25.7327 23.7752 25.7327Z" fill="#947165"/>
<path d="M23.4016 24.9049C23.4016 23.7598 24.3318 22.832 25.4778 22.836C26.6212 22.8399 27.5394 23.7838 27.5394 24.9273V28.3947C27.5394 28.7526 27.2494 29.0426 26.8915 29.0426H23.4241C22.2807 29.0426 21.3367 28.1245 21.3328 26.981C21.3287 25.8351 22.2565 24.9049 23.4016 24.9049Z" fill="#ED6EA4"/>
<path opacity="0.12" d="M23.4241 29.0426H26.8915C27.224 29.0426 27.4978 28.7922 27.535 28.4697C27.4231 28.5617 27.2799 28.6169 27.1237 28.6169H23.6563C22.5129 28.6169 21.5689 27.6988 21.565 26.5553C21.564 26.2804 21.6168 26.018 21.7132 25.7778C21.4723 26.1173 21.3312 26.5327 21.3328 26.981C21.3367 28.1245 22.2806 29.0426 23.4241 29.0426Z" fill="black"/>
<path d="M3.06725 9.87375C2.46905 9.65603 1.80757 9.96445 1.58985 10.5627C1.37212 11.1609 1.68055 11.8223 2.27875 12.0401L4.04793 12.684C3.44973 12.4662 2.78825 12.7747 2.57053 13.3729C2.3528 13.9711 2.66122 14.6326 3.25949 14.8503L5.15539 15.5404C4.55719 15.3227 3.89571 15.6311 3.67799 16.2294C3.46026 16.8276 3.76869 17.489 4.36689 17.7068L7.50582 18.8492C9.30049 19.5024 11.2849 18.5771 11.9382 16.7824C12.5913 14.9877 11.666 13.0033 9.87127 12.3501L3.06725 9.87375Z" fill="#EAEAEA"/>
<path opacity="0.12" d="M9.8713 12.3502L6.18037 11.0069C4.80716 13.3466 4.98608 16.3642 6.70706 18.5587L7.5058 18.8494C9.30047 19.5026 11.2849 18.5772 11.9381 16.7826C12.5914 14.9878 11.666 13.0034 9.8713 12.3502Z" fill="black"/>
<path d="M16.033 10.3029C13.7631 8.03298 10.0799 8.03782 7.81605 10.3174C5.55717 12.592 5.60833 16.2833 7.87502 18.5499L14.7485 25.4235C15.4579 26.1329 16.6081 26.1329 17.3175 25.4235L24.1911 18.5499C26.4578 16.2832 26.5089 12.5919 24.25 10.3174C21.9861 8.03776 18.3029 8.03292 16.033 10.3029Z" fill="#ED6EA4"/>
<path opacity="0.12" d="M24.25 10.3174C23.3643 9.42556 22.2612 8.88197 21.1107 8.68646C21.778 8.97152 22.4027 9.38705 22.9458 9.93385C25.2047 12.2084 25.1535 15.8997 22.8868 18.1663L16.0132 25.0399C15.7037 25.3495 15.3102 25.5239 14.906 25.5633C15.619 26.1289 16.6584 26.0826 17.3175 25.4235L24.191 18.5499C26.4577 16.2832 26.5088 12.5919 24.25 10.3174Z" fill="black"/>
<path d="M11.788 16.3184H11.0349C10.7841 16.3184 10.5808 16.1152 10.5808 15.8643C10.5808 15.6135 10.7841 15.4102 11.0349 15.4102H11.788C12.0388 15.4102 12.2421 15.6135 12.2421 15.8643C12.2421 16.115 12.0388 16.3184 11.788 16.3184Z" fill="white"/>
<path d="M21.0317 16.3184H20.2786C20.0277 16.3184 19.8245 16.1152 19.8245 15.8643C19.8245 15.6135 20.0277 15.4102 20.2786 15.4102H21.0317C21.2826 15.4102 21.4858 15.6135 21.4858 15.8643C21.4858 16.115 21.2825 16.3184 21.0317 16.3184Z" fill="white"/>
<path d="M11.3581 14.4313C11.3581 14.402 11.3819 14.3782 11.4112 14.3782C11.4405 14.3782 11.4643 14.402 11.4643 14.4313C11.4643 14.6822 11.6676 14.8854 11.9184 14.8854C12.1693 14.8854 12.3725 14.6822 12.3725 14.4313C12.3725 13.9012 11.9413 13.47 11.4112 13.47C10.8811 13.47 10.4499 13.9012 10.4499 14.4313C10.4499 14.6822 10.6531 14.8854 10.904 14.8854C11.1548 14.8854 11.3581 14.6822 11.3581 14.4313ZM20.6549 14.8854C20.9057 14.8854 21.109 14.6822 21.109 14.4313V14.093C21.109 13.8421 20.9057 13.6389 20.6549 13.6389C20.404 13.6389 20.2008 13.8421 20.2008 14.093V14.4313C20.2008 14.6822 20.404 14.8854 20.6549 14.8854ZM16.0331 15.7408C16.2161 15.8748 16.4415 15.954 16.6852 15.954C17.2951 15.954 17.7914 15.4577 17.7914 14.8477C17.7914 14.5969 17.5882 14.3936 17.3373 14.3936C17.0865 14.3936 16.8832 14.5969 16.8832 14.8477C16.8832 14.9569 16.7944 15.0458 16.6852 15.0458C16.576 15.0458 16.4872 14.9569 16.4872 14.8477C16.4872 14.5969 16.2839 14.3936 16.0331 14.3936C15.7822 14.3936 15.579 14.5969 15.579 14.8477C15.579 14.9569 15.4902 15.0458 15.381 15.0458C15.2718 15.0458 15.183 14.9569 15.183 14.8477C15.183 14.5969 14.9797 14.3936 14.7289 14.3936C14.4781 14.3936 14.2748 14.5969 14.2748 14.8477C14.2748 15.4577 14.771 15.954 15.381 15.954C15.6246 15.954 15.85 15.8748 16.0331 15.7408ZM30.903 10.4073C30.5999 9.57469 29.6762 9.14395 28.8434 9.44699L25.2202 10.7658C25.0281 10.4965 24.8124 10.2392 24.5722 9.99736C23.392 8.80895 21.8197 8.15286 20.1451 8.15002C20.1413 8.15002 20.1379 8.14996 20.134 8.14996C18.6107 8.14996 17.1708 8.69082 16.033 9.68197C14.8952 8.6907 13.4554 8.15002 11.9321 8.15002H11.9209C10.6402 8.15226 9.41955 8.53691 8.38813 9.24919L7.61822 8.47927V5.81757C7.61822 5.35239 7.43706 4.91518 7.10817 4.58635L6.52008 3.9982C6.34274 3.82086 6.0552 3.82079 5.87792 3.99814C5.70052 4.17548 5.70052 4.46302 5.87786 4.6403L6.46601 5.22851C6.62337 5.38587 6.71001 5.59506 6.71001 5.81757V7.57107L3.8697 4.73081V2.6322L4.79546 3.55802C4.97286 3.7353 5.26034 3.7353 5.43768 3.55802C5.61502 3.38062 5.61502 3.09314 5.43768 2.9158L4.246 1.724C4.03003 1.50809 3.70822 1.44415 3.42601 1.56094C3.14387 1.67786 2.96156 1.95068 2.96156 2.25602V4.46489H0.752749C0.44735 4.46489 0.174466 4.6472 0.0576709 4.92935C-0.0592451 5.2115 0.00481343 5.53336 0.220724 5.74933L3.08302 8.61157C3.41197 8.94046 3.84924 9.12155 4.3143 9.12155H6.97606L7.67616 9.82166C7.61452 9.87899 7.55361 9.93736 7.49398 9.99742C7.25379 10.2393 7.03806 10.4965 6.84606 10.7658L3.22282 9.44699C2.81958 9.30023 2.38328 9.31936 1.99414 9.50064C1.60519 9.68203 1.31014 10.004 1.16332 10.4073C0.86028 11.2398 1.29101 12.1638 2.12359 12.4669L2.53216 12.6157C2.36093 12.7822 2.22809 12.9866 2.14393 13.2177C1.84096 14.0503 2.27175 14.9741 3.10427 15.2772L3.63962 15.4721C3.46834 15.6386 3.33556 15.8431 3.2514 16.0741C2.94836 16.9067 3.37909 17.8306 4.21167 18.1338L7.3506 19.2762C7.61247 19.3715 7.88365 19.4383 8.1589 19.476L9.98463 21.3017C10.162 21.479 10.4495 21.479 10.6269 21.3017C10.8042 21.1243 10.8042 20.8368 10.6268 20.6595L8.1962 18.2288C6.09443 16.1271 6.06846 12.7217 8.13832 10.6375C8.27333 10.5015 8.41477 10.3743 8.56124 10.2549C8.60065 10.2342 8.63765 10.2073 8.67082 10.1741C8.67682 10.1681 8.68209 10.1617 8.68766 10.1555C9.61245 9.44627 10.7372 9.06028 11.9226 9.05822H11.9321C13.3599 9.05822 14.7021 9.6141 15.712 10.624C15.8894 10.8012 16.1769 10.8012 16.3542 10.624C17.3641 9.61398 18.7062 9.05822 20.1342 9.05822H20.1437C21.5751 9.06064 22.919 9.62149 23.9279 10.6373C25.9978 12.7215 25.9717 16.127 23.87 18.2288L20.2978 21.801L16.9965 25.1024C16.4653 25.6335 15.601 25.6335 15.0698 25.1024L11.9456 21.9781C11.7682 21.8008 11.4807 21.8008 11.3033 21.9781C11.126 22.1555 11.126 22.443 11.3033 22.6203L14.4276 25.7446C14.8703 26.1872 15.4517 26.4085 16.0332 26.4085C16.6146 26.4085 17.1961 26.1872 17.6388 25.7446L20.619 22.7643L22.479 24.6243C22.1587 24.75 21.8647 24.9415 21.6145 25.1927C21.1376 25.6712 20.8763 26.3068 20.8786 26.9825C20.8834 28.3688 22.0253 29.4966 23.4242 29.4966H26.8916C27.4992 29.4966 27.9936 29.0022 27.9936 28.3946V26.9433C27.9936 26.6925 27.7903 26.4892 27.5395 26.4892C27.2886 26.4892 27.0854 26.6925 27.0854 26.9433V28.3946C27.0854 28.5015 26.9984 28.5884 26.8916 28.5884H23.4242C22.5245 28.5884 21.79 27.8666 21.7869 26.9794C21.7855 26.5469 21.9526 26.1401 22.2578 25.8339C22.5631 25.5276 22.9693 25.3589 23.4017 25.3589C23.4167 25.3589 23.4316 25.3581 23.4465 25.3567C23.4535 25.356 23.4602 25.3547 23.467 25.3537C23.4748 25.3525 23.4826 25.3516 23.4903 25.3501C23.4982 25.3485 23.5059 25.3464 23.5136 25.3444C23.5202 25.3427 23.5268 25.3413 23.5334 25.3393C23.541 25.337 23.5483 25.3342 23.5557 25.3315C23.5623 25.3292 23.5689 25.327 23.5753 25.3244C23.5823 25.3215 23.589 25.3181 23.5958 25.3149C23.6024 25.3117 23.6091 25.3088 23.6156 25.3053C23.6221 25.3019 23.6282 25.2979 23.6345 25.2942C23.641 25.2903 23.6475 25.2867 23.6538 25.2824C23.6605 25.2779 23.6668 25.273 23.6732 25.2681C23.6787 25.2641 23.6843 25.2603 23.6896 25.2559C23.6994 25.2478 23.7087 25.2393 23.7178 25.2304C23.7194 25.2288 23.7212 25.2275 23.7228 25.2259C23.7245 25.2242 23.726 25.2223 23.7276 25.2205C23.7363 25.2116 23.7449 25.2024 23.7528 25.1927C23.7575 25.187 23.7615 25.1811 23.7659 25.1752C23.7704 25.1691 23.7751 25.1633 23.7793 25.157C23.7837 25.1502 23.7877 25.1433 23.7918 25.1364C23.7953 25.1306 23.7989 25.1249 23.8022 25.1189C23.8059 25.1119 23.8091 25.1048 23.8124 25.0976C23.8154 25.0913 23.8185 25.0851 23.8212 25.0786C23.8241 25.0717 23.8264 25.0646 23.829 25.0575C23.8315 25.0506 23.8341 25.0437 23.8362 25.0367C23.8384 25.0296 23.84 25.0223 23.8418 25.015C23.8436 25.0079 23.8456 25.0009 23.847 24.9937C23.8487 24.9851 23.8497 24.9765 23.851 24.9679C23.8518 24.9619 23.853 24.9559 23.8536 24.9498C23.8551 24.9348 23.8559 24.9197 23.8559 24.9046C23.8559 24.4723 24.0246 24.0662 24.3308 23.761C24.6357 23.4571 25.0403 23.2901 25.4706 23.2901H25.4763C26.3635 23.2932 27.0854 24.0276 27.0854 24.9273V25.1875C27.0854 25.4384 27.2886 25.6416 27.5395 25.6416C27.7903 25.6416 27.9936 25.4384 27.9936 25.1875V24.9273C27.9936 23.5286 26.8658 22.3866 25.4795 22.3818C24.806 22.3782 24.1682 22.6408 23.6897 23.1176C23.4386 23.3679 23.247 23.6618 23.1213 23.9821L21.2613 22.1221L23.9075 19.4759C24.1826 19.4381 24.4539 19.3714 24.7159 19.276L27.8548 18.1336C28.6874 17.8305 29.1181 16.9065 28.8151 16.074C28.7309 15.8429 28.5981 15.6385 28.4268 15.4719L28.9622 15.277C29.3654 15.1303 29.6874 14.8352 29.8689 14.4462C30.0503 14.0572 30.0694 13.6209 29.9225 13.2177C29.8384 12.9865 29.7056 12.7821 29.5343 12.6155L29.9429 12.4668C30.7751 12.1638 31.206 11.2398 30.903 10.4073ZM4.31424 8.21329C4.09173 8.21329 3.88248 8.12659 3.72518 7.96928L1.12893 5.37303H3.22754L6.06779 8.21329H4.31424ZM6.94076 18.1604L4.52221 17.2802C4.1602 17.1484 3.97293 16.7468 4.10468 16.3848C4.1685 16.2094 4.2968 16.0694 4.46591 15.9905C4.63495 15.9116 4.82465 15.9034 4.99999 15.9672C5.23564 16.0528 5.49623 15.9314 5.58203 15.6958C5.66782 15.4601 5.5463 15.1996 5.31066 15.1138C5.30981 15.1135 5.30908 15.1131 5.30823 15.1128L3.41481 14.4236C3.0528 14.2919 2.86553 13.8902 2.99728 13.5283C3.0611 13.353 3.1894 13.2129 3.35856 13.1341C3.52767 13.0551 3.7173 13.0469 3.89265 13.1107C4.12854 13.1964 4.38889 13.0749 4.47469 12.8394C4.56048 12.6037 4.43896 12.3431 4.20331 12.2573L2.43414 11.6134C2.07213 11.4817 1.88485 11.0799 2.0166 10.718C2.08042 10.5426 2.20872 10.4027 2.37783 10.3238C2.54687 10.2449 2.73663 10.2366 2.91197 10.3005L6.36659 11.5578C5.30878 13.6467 5.50259 16.2222 6.94076 18.1604ZM29.632 11.6134L27.8628 12.2573C27.6271 12.3431 27.5056 12.6037 27.5914 12.8393C27.6772 13.0749 27.9374 13.1964 28.1735 13.1107C28.3489 13.0468 28.5385 13.055 28.7076 13.134C28.8767 13.2129 29.005 13.3529 29.0688 13.5283C29.1327 13.7036 29.1244 13.8933 29.0455 14.0624C28.9666 14.2315 28.8267 14.3598 28.6513 14.4236L26.757 15.1131C26.7565 15.1133 26.7559 15.1135 26.7554 15.1137C26.5197 15.1995 26.3982 15.4601 26.484 15.6957C26.5697 15.9314 26.8303 16.0527 27.0661 15.9672L27.0673 15.9667C27.2422 15.9033 27.4316 15.9117 27.6003 15.9905C27.7694 16.0694 27.8977 16.2093 27.9615 16.3847C28.0933 16.7467 27.906 17.1484 27.5439 17.2801L25.1253 18.1604C26.5635 16.2221 26.7574 13.6466 25.6996 11.5577L29.1542 10.3003C29.3295 10.2365 29.5191 10.2447 29.6883 10.3237C29.8574 10.4025 29.9857 10.5425 30.0496 10.7178C30.1812 11.0799 29.9939 11.4817 29.632 11.6134Z" fill="black"/>
</g>
<defs>
<clipPath id="clip0">
<rect width="31" height="31" fill="white"/>
</clipPath>
</defs>
</svg>
