<svg width="30" height="30" viewBox="0 0 30 30" fill="none" xmlns="http://www.w3.org/2000/svg">
<g clip-path="url(#clip0)">
<path d="M7.60596 13.9303C7.36326 13.9303 7.1665 14.1271 7.1665 14.3698C7.1665 14.6124 7.36326 14.8092 7.60596 14.8092H8.71063C8.95333 14.8092 9.15009 14.6124 9.15009 14.3698C9.15009 14.1271 8.95333 13.9303 8.71063 13.9303H7.60596Z" fill="black"/>
<path d="M9.34181 12.2681C9.34181 11.6156 8.81089 11.0847 8.15833 11.0847C7.50577 11.0847 6.97485 11.6156 6.97485 12.2681C6.97485 12.5108 7.17161 12.7076 7.41431 12.7076C7.657 12.7076 7.85376 12.5108 7.85376 12.2681C7.85376 12.1002 7.99034 11.9636 8.15828 11.9636C8.32621 11.9636 8.46279 12.1002 8.46279 12.2681C8.46279 12.5108 8.65955 12.7076 8.90224 12.7076C9.14506 12.7076 9.34181 12.5108 9.34181 12.2681Z" fill="black"/>
<path d="M17.4706 27.1199L16.5105 28.08C15.643 28.9475 14.2316 28.9475 13.3642 28.08L9.74114 24.457L10.1122 24.0859C11.187 23.0111 11.198 21.2674 10.1367 20.1988C9.6195 19.6779 8.93044 19.3904 8.19655 19.3891C7.60329 19.3866 7.03423 19.5756 6.56437 19.9238C6.09456 19.5756 5.52755 19.3898 4.93218 19.3891C4.84915 19.3893 4.76683 19.3935 4.68515 19.4009L3.28247 17.9982C1.98169 16.6974 1.14773 14.9759 0.934093 13.1508C0.723097 11.3477 1.12177 9.51568 2.05681 7.99242C2.18378 7.78559 2.11903 7.515 1.91214 7.38797C1.7053 7.26105 1.43472 7.32574 1.30775 7.53264C0.269933 9.22336 -0.172802 11.2548 0.0610461 13.253C0.29753 15.2737 1.22085 17.1797 2.66091 18.6197L3.7163 19.6751C3.4514 19.8071 3.20671 19.9825 2.99191 20.1987C1.93066 21.2674 1.94161 23.0111 3.0164 24.0859L5.74388 26.8134C5.96302 27.0325 6.25435 27.1532 6.56431 27.1532C6.87421 27.1532 7.1656 27.0325 7.38474 26.8134L9.11964 25.0785L12.7427 28.7016C13.3478 29.3066 14.1426 29.6092 14.9375 29.6092C15.7323 29.6092 16.5271 29.3067 17.1322 28.7016L18.0923 27.7415C18.2639 27.5699 18.2639 27.2916 18.0923 27.1201C17.9205 26.9483 17.6422 26.9483 17.4706 27.1199ZM6.76323 26.1919C6.71009 26.245 6.63948 26.2743 6.56431 26.2743C6.48919 26.2743 6.41853 26.245 6.36538 26.1919L3.6379 23.4644C2.90472 22.7311 2.89464 21.544 3.61558 20.8181C3.88775 20.544 4.23005 20.3655 4.6023 20.2984C4.60704 20.2976 4.61179 20.2969 4.61648 20.2959C4.72025 20.278 4.82618 20.2683 4.93364 20.2681C4.93476 20.2681 4.93587 20.2681 4.93698 20.2681C5.43433 20.2681 5.90185 20.4618 6.25359 20.8135C6.42521 20.9851 6.70347 20.9851 6.87503 20.8135C7.22677 20.4618 7.69429 20.2681 8.19163 20.2681C8.19269 20.2681 8.19386 20.2681 8.19497 20.2681C8.69349 20.269 9.16165 20.4643 9.51304 20.8182C10.234 21.544 10.224 22.7312 9.49071 23.4645L6.76323 26.1919Z" fill="black"/>
<path d="M20.7244 14.3698C20.7244 14.6124 20.9211 14.8092 21.1638 14.8092H22.2685C22.5112 14.8092 22.708 14.6124 22.708 14.3698C22.708 14.1271 22.5112 13.9303 22.2685 13.9303H21.1639C20.9211 13.9303 20.7244 14.1271 20.7244 14.3698Z" fill="black"/>
<path d="M22.156 12.2681V11.7719C22.156 11.5292 21.9592 11.3325 21.7166 11.3325C21.4739 11.3325 21.2771 11.5292 21.2771 11.7719V12.2681C21.2771 12.5108 21.4739 12.7075 21.7166 12.7075C21.9592 12.7075 22.156 12.5108 22.156 12.2681Z" fill="black"/>
<path d="M14.9374 13.8947C15.1874 14.1303 15.5241 14.2748 15.8939 14.2748C16.6636 14.2748 17.2898 13.6486 17.2898 12.8788C17.2898 12.6361 17.0931 12.4394 16.8504 12.4394C16.6077 12.4394 16.4109 12.6361 16.4109 12.8788C16.4109 13.1639 16.179 13.3958 15.8939 13.3958C15.6089 13.3958 15.377 13.1639 15.377 12.8788C15.377 12.6361 15.1802 12.4394 14.9375 12.4394C14.6948 12.4394 14.4981 12.6361 14.4981 12.8788C14.4981 13.1639 14.2661 13.3958 13.9811 13.3958C13.696 13.3958 13.4641 13.1639 13.4641 12.8788C13.4641 12.6361 13.2674 12.4394 13.0247 12.4394C12.782 12.4394 12.5852 12.6361 12.5852 12.8788C12.5852 13.6486 13.2114 14.2748 13.9811 14.2748C14.3507 14.2748 14.6874 14.1303 14.9374 13.8947Z" fill="black"/>
<path d="M29.1867 5.08774C30.2615 4.01296 30.2724 2.26921 29.2112 1.20057C28.6939 0.679734 28.0049 0.392156 27.271 0.390867C27.2693 0.390808 27.2677 0.390808 27.2661 0.390808C26.6723 0.390808 26.1073 0.578308 25.6388 0.925476C25.1703 0.57825 24.6054 0.390808 24.0115 0.390808H24.0066C23.2727 0.392039 22.5836 0.679617 22.0664 1.20046C21.499 1.77181 21.2383 2.53628 21.2827 3.28821C18.9398 3.20073 16.6734 4.02655 14.9375 5.60536C13.2875 4.10308 11.1685 3.28136 8.92234 3.28136C8.91707 3.28136 8.91168 3.28136 8.90646 3.28136C6.51091 3.28552 4.26179 4.22407 2.57341 5.92417C2.40244 6.09638 2.40337 6.37464 2.57558 6.54567C2.6613 6.63081 2.77328 6.67329 2.88525 6.67329C2.99822 6.67329 3.11113 6.62999 3.19709 6.54351C4.71959 5.0104 6.74781 4.16401 8.90798 4.16026C8.91285 4.1602 8.91748 4.1602 8.92234 4.1602C11.0772 4.1602 13.1027 4.99915 14.6268 6.52323C14.7984 6.69485 15.0767 6.69485 15.2483 6.52323C16.9011 4.87036 19.1604 4.02474 21.4851 4.17843C21.6207 4.50919 21.8227 4.81921 22.091 5.08751L22.7887 5.78524C22.9603 5.95687 23.2386 5.95687 23.4102 5.78524C23.5819 5.61362 23.5819 5.33536 23.4102 5.1638L22.7123 4.46618C22.4763 4.23017 22.3157 3.94704 22.2298 3.64751C22.2283 3.642 22.227 3.63638 22.2252 3.63093C22.0516 3.00415 22.2054 2.30782 22.69 1.81985C23.0414 1.46606 23.5095 1.27071 24.0081 1.26983C24.0092 1.26983 24.0103 1.26983 24.0114 1.26983C24.5087 1.26983 24.9762 1.46348 25.328 1.81522C25.4996 1.98684 25.7779 1.98684 25.9495 1.81522C26.3012 1.46348 26.7688 1.26983 27.2661 1.26983C27.2672 1.26983 27.2683 1.26983 27.2694 1.26983C27.768 1.27071 28.2361 1.466 28.5875 1.81985C29.3085 2.54583 29.2984 3.73288 28.5652 4.46618L25.8377 7.19366C25.7846 7.24681 25.714 7.27605 25.6388 7.27605C25.5636 7.27605 25.493 7.24681 25.4399 7.19366L24.6081 6.36187C24.4364 6.19024 24.1582 6.19024 23.9866 6.36187C23.8149 6.53349 23.8149 6.81175 23.9866 6.98331L24.8184 7.81511C25.0375 8.03425 25.3288 8.15489 25.6388 8.15489C25.9487 8.15489 26.24 8.03419 26.4592 7.81511L27.1773 7.09704C28.4011 8.58157 29.0435 10.4493 28.9935 12.4065C28.9395 14.5179 28.0867 16.5038 26.5924 17.9981L18.9262 25.6642C18.7546 25.8359 18.7546 26.1141 18.9262 26.2857C19.012 26.3715 19.1245 26.4144 19.2369 26.4144C19.3494 26.4144 19.4619 26.3715 19.5477 26.2857L27.2138 18.6196C28.8682 16.9652 29.8122 14.7666 29.8721 12.4289C29.9283 10.2295 29.1957 8.13087 27.8017 6.47261L29.1867 5.08774Z" fill="black"/>
</g>
<defs>
<clipPath id="clip0">
<rect width="30" height="30" fill="white"/>
</clipPath>
</defs>
</svg>
