<svg width="30" height="30" viewBox="0 0 30 30" fill="none" xmlns="http://www.w3.org/2000/svg">
<g clip-path="url(#clip0)">
<path d="M14.9375 6.21266C11.6081 2.88329 6.20576 2.89038 2.88525 6.23398C-0.427885 9.57014 -0.352885 14.9844 2.97173 18.309L13.0535 28.3908C14.094 29.4313 15.7809 29.4313 16.8214 28.3908L26.9032 18.309C30.2278 14.9843 30.3029 9.57014 26.9898 6.23404C23.6692 2.89044 18.2668 2.88335 14.9375 6.21266Z" fill="#ED6EA4"/>
<path opacity="0.15" d="M26.9895 6.23401C25.6904 4.92584 24.0725 4.12856 22.3849 3.8418C23.3637 4.25986 24.2801 4.86936 25.0766 5.67139C28.3897 9.00749 28.3147 14.4217 24.9901 17.7464L14.9082 27.8282C14.4542 28.2822 13.877 28.5381 13.2842 28.5958C14.33 29.4255 15.8545 29.3575 16.8211 28.3908L26.9029 18.309C30.2277 14.9844 30.3027 9.57011 26.9895 6.23401Z" fill="black"/>
<path d="M25.6387 1.50446C24.7379 0.603692 23.2764 0.605625 22.3781 1.5102C21.4818 2.41278 21.5021 3.87751 22.4016 4.77692L25.1291 7.50441C25.4105 7.78589 25.867 7.78589 26.1484 7.50441L28.8759 4.77692C29.7754 3.87745 29.7956 2.41272 28.8993 1.5102C28.0009 0.605684 26.5394 0.603809 25.6387 1.50446Z" fill="#FFABCA"/>
<path opacity="0.15" d="M28.8993 1.51023C28.7947 1.40482 28.6821 1.31224 28.5639 1.23132C29.1793 2.1322 29.0749 3.3775 28.2757 4.17666L25.5482 6.90415C25.2667 7.18563 24.8103 7.18563 24.5288 6.90415L25.129 7.50438C25.4105 7.78587 25.8669 7.78587 26.1484 7.50438L28.8759 4.7769C29.7754 3.87754 29.7957 2.41275 28.8993 1.51023Z" fill="black"/>
<path d="M8.71062 14.8093H7.60596C7.36326 14.8093 7.1665 14.6126 7.1665 14.3699C7.1665 14.1272 7.36326 13.9304 7.60596 13.9304H8.71062C8.95332 13.9304 9.15007 14.1272 9.15007 14.3699C9.15007 14.6125 8.95332 14.8093 8.71062 14.8093Z" fill="white"/>
<path d="M22.2688 14.8093H21.1641C20.9214 14.8093 20.7246 14.6126 20.7246 14.3699C20.7246 14.1272 20.9214 13.9304 21.1641 13.9304H22.2688C22.5115 13.9304 22.7082 14.1272 22.7082 14.3699C22.7083 14.6125 22.5115 14.8093 22.2688 14.8093Z" fill="white"/>
<path d="M6.564 20.5026C5.66329 19.6019 4.20173 19.6038 3.30342 20.5084C2.40706 21.4109 2.42739 22.8757 3.32686 23.7751L6.05435 26.5026C6.33583 26.7841 6.79222 26.7841 7.0737 26.5026L9.80119 23.7751C10.7007 22.8756 10.7209 21.4109 9.82457 20.5084C8.92633 19.6039 7.46476 19.6019 6.564 20.5026Z" fill="#FFABCA"/>
<path opacity="0.15" d="M9.82511 20.5084C9.72046 20.403 9.6079 20.3104 9.48972 20.2296C10.1051 21.1304 10.0007 22.3757 9.20143 23.1749L6.47395 25.9024C6.19246 26.1839 5.73607 26.1839 5.45459 25.9024L6.05483 26.5026C6.33631 26.7841 6.7927 26.7841 7.07418 26.5026L9.80167 23.7751C10.7011 22.8757 10.7214 21.411 9.82511 20.5084Z" fill="black"/>
<path d="M17.4706 27.12L16.5105 28.0801C15.643 28.9476 14.2316 28.9476 13.3641 28.0801L9.74105 24.457L10.1121 24.0859C11.1869 23.0111 11.1979 21.2674 10.1366 20.1988C9.61941 19.678 8.93034 19.3904 8.19645 19.3891C7.60319 19.3866 7.03413 19.5756 6.56426 19.9238C6.09446 19.5756 5.52744 19.3898 4.93207 19.3891C4.84904 19.3893 4.76672 19.3935 4.68504 19.4009L3.28236 17.9983C1.98158 16.6975 1.14761 14.976 0.933978 13.1509C0.722981 11.3478 1.12171 9.51578 2.05675 7.99252C2.18373 7.78568 2.11898 7.5151 1.91209 7.38812C1.70525 7.26115 1.43466 7.3259 1.30769 7.53279C0.269934 9.2234 -0.172802 11.2548 0.0610465 13.253C0.297531 15.2737 1.22085 17.1797 2.66091 18.6197L3.71631 19.6751C3.4514 19.8072 3.20672 19.9825 2.99191 20.1987C1.93066 21.2674 1.94162 23.0111 3.0164 24.0859L5.74389 26.8134C5.96303 27.0325 6.25436 27.1532 6.56432 27.1532C6.87422 27.1532 7.16561 27.0325 7.38475 26.8134L9.11966 25.0785L12.7428 28.7016C13.3478 29.3066 14.1427 29.6093 14.9375 29.6093C15.7323 29.6093 16.5271 29.3067 17.1322 28.7016L18.0923 27.7415C18.2639 27.5699 18.2639 27.2916 18.0923 27.1201C17.9205 26.9484 17.6422 26.9484 17.4706 27.12ZM6.76319 26.1919C6.71004 26.245 6.63944 26.2743 6.56426 26.2743C6.48914 26.2743 6.41848 26.245 6.36534 26.1919L3.63785 23.4644C2.90461 22.7311 2.89453 21.5441 3.61553 20.8181C3.88769 20.544 4.23 20.3656 4.60225 20.2984C4.60699 20.2976 4.61174 20.2969 4.61643 20.2959C4.7202 20.278 4.82613 20.2683 4.93359 20.2681C4.93471 20.2681 4.93582 20.2681 4.93694 20.2681C5.43428 20.2681 5.9018 20.4617 6.25354 20.8134C6.42516 20.9851 6.70342 20.9851 6.87499 20.8134C7.22672 20.4617 7.69425 20.2681 8.19159 20.2681C8.19264 20.2681 8.19382 20.2681 8.19493 20.2681C8.69345 20.269 9.16161 20.4643 9.513 20.8182C10.2339 21.5441 10.2239 22.7312 9.49067 23.4645L6.76319 26.1919ZM7.85374 12.2682C7.85374 12.1002 7.99038 11.9637 8.15825 11.9637C8.32618 11.9637 8.46276 12.1003 8.46276 12.2682C8.46276 12.5109 8.65952 12.7076 8.90222 12.7076C9.14491 12.7076 9.34167 12.5109 9.34167 12.2682C9.34167 11.6156 8.81075 11.0847 8.15819 11.0847C7.50563 11.0847 6.97471 11.6156 6.97471 12.2682C6.97471 12.5109 7.17147 12.7076 7.41417 12.7076C7.65698 12.7076 7.85374 12.5109 7.85374 12.2682ZM29.1867 5.08779C30.2614 4.013 30.2724 2.26925 29.2111 1.20061C28.6939 0.679769 28.0048 0.392191 27.2709 0.390902C27.2693 0.390843 27.2677 0.390843 27.2661 0.390843C26.6722 0.390843 26.1072 0.578343 25.6388 0.925512C25.1689 0.577347 24.6013 0.387855 24.0065 0.390843C23.2727 0.392132 22.5836 0.679652 22.0664 1.20049C21.499 1.7719 21.2383 2.53632 21.2827 3.28825C18.9398 3.20077 16.6734 4.02659 14.9375 5.6054C13.2874 4.10312 11.1685 3.2814 8.92231 3.2814C8.91704 3.2814 8.91165 3.2814 8.90644 3.2814C6.51088 3.28556 4.26176 4.22411 2.57338 5.92421C2.40234 6.09642 2.40334 6.37468 2.57554 6.54572C2.66127 6.63086 2.77324 6.67334 2.88521 6.67334C2.99818 6.67334 3.11109 6.63004 3.19705 6.54355C4.71955 5.01044 6.74772 4.16405 8.90796 4.1603C8.91282 4.1603 8.91745 4.1603 8.92231 4.1603C11.0772 4.1603 13.1027 4.99925 14.6268 6.52334C14.7984 6.69496 15.0767 6.69496 15.2483 6.52334C16.9011 4.87046 19.1604 4.02484 21.4851 4.17853C21.6207 4.50929 21.8227 4.81931 22.091 5.08761L22.7887 5.78535C22.9603 5.95697 23.2386 5.95697 23.4102 5.78535C23.5819 5.61372 23.5819 5.33546 23.4102 5.1639L22.7123 4.46622C22.4762 4.23021 22.3156 3.94708 22.2297 3.64749C22.2282 3.64198 22.2269 3.63636 22.2252 3.63091C22.0516 3.00413 22.2054 2.3078 22.6899 1.81989C23.0413 1.46604 23.5094 1.27069 24.008 1.26987C24.0091 1.26987 24.0102 1.26987 24.0113 1.26987C24.5087 1.26987 24.9762 1.46352 25.328 1.81526C25.4104 1.8977 25.5222 1.94399 25.6387 1.94399C25.7552 1.94399 25.867 1.8977 25.9494 1.81526C26.3011 1.46352 26.7686 1.26987 27.266 1.26987C27.2671 1.26987 27.2682 1.26987 27.2693 1.26987C27.7679 1.27075 28.236 1.46604 28.5874 1.81989C29.3083 2.54587 29.2983 3.73292 28.5651 4.46622L25.8376 7.19371C25.7845 7.24685 25.7139 7.27609 25.6387 7.27609C25.5635 7.27609 25.4929 7.24685 25.4397 7.19371L24.608 6.36191C24.4363 6.19029 24.1581 6.19029 23.9864 6.36191C23.8148 6.53353 23.8148 6.81179 23.9864 6.98336L24.8182 7.81516C25.0374 8.0343 25.3287 8.15494 25.6387 8.15494C25.9486 8.15494 26.2399 8.03424 26.4591 7.81516L27.1772 7.09703C28.401 8.58156 29.0434 10.4493 28.9933 12.4065C28.9393 14.5179 28.0866 16.5038 26.5922 17.9981L18.9261 25.6643C18.7545 25.8359 18.7545 26.1142 18.9261 26.2858C19.0119 26.3715 19.1244 26.4145 19.2368 26.4145C19.3493 26.4145 19.4618 26.3716 19.5475 26.2858L27.2137 18.6196C28.8681 16.9653 29.8121 14.7667 29.872 12.429C29.9282 10.2296 29.1956 8.13092 27.8016 6.47265L29.1867 5.08779ZM14.9373 13.8948C15.1873 14.1303 15.524 14.2748 15.8938 14.2748C16.6636 14.2748 17.2898 13.6486 17.2898 12.8789C17.2898 12.6362 17.093 12.4394 16.8503 12.4394C16.6076 12.4394 16.4108 12.6362 16.4108 12.8789C16.4108 13.164 16.1789 13.3959 15.8939 13.3959C15.6088 13.3959 15.3769 13.164 15.3769 12.8789C15.3769 12.6362 15.1801 12.4394 14.9374 12.4394C14.6947 12.4394 14.498 12.6362 14.498 12.8789C14.498 13.164 14.2661 13.3959 13.981 13.3959C13.696 13.3959 13.464 13.164 13.464 12.8789C13.464 12.6362 13.2673 12.4394 13.0246 12.4394C12.7819 12.4394 12.5851 12.6362 12.5851 12.8789C12.5851 13.6486 13.2113 14.2748 13.9811 14.2748C14.3506 14.2749 14.6873 14.1303 14.9373 13.8948ZM22.1558 12.2682V11.772C22.1558 11.5293 21.959 11.3325 21.7163 11.3325C21.4736 11.3325 21.2769 11.5293 21.2769 11.772V12.2682C21.2769 12.5109 21.4736 12.7076 21.7163 12.7076C21.959 12.7076 22.1558 12.5109 22.1558 12.2682Z" fill="black"/>
</g>
<defs>
<clipPath id="clip0">
<rect width="30" height="30" fill="white"/>
</clipPath>
</defs>
</svg>
