<svg width="30" height="30" viewBox="0 0 30 30" fill="none" xmlns="http://www.w3.org/2000/svg">
<path d="M17.8342 6.89214C18.0769 6.89214 18.2737 6.69544 18.2737 6.45268V6.10358C18.2737 5.86082 18.0769 5.66412 17.8342 5.66412C17.5915 5.66412 17.3948 5.86082 17.3948 6.10358V6.45268C17.3948 6.69544 17.5915 6.89214 17.8342 6.89214Z" fill="black"/>
<path d="M28.2942 20.3725C28.0515 20.3725 27.8548 20.5693 27.8548 20.812V25.2079C27.8548 25.5069 27.6116 25.7501 27.3126 25.7501H26.5434C26.3017 25.7501 26.1055 25.9451 26.1039 26.1868C26.0976 27.1721 26.1255 28.1256 26.5308 28.9584C26.5557 29.0095 26.5381 29.05 26.519 29.0749C26.4989 29.1011 26.4624 29.1299 26.4032 29.1185C24.2299 28.6988 23.1148 27.2191 22.8202 26.0796C22.77 25.8856 22.595 25.7501 22.3947 25.7501H6.94364C6.64464 25.7501 6.40142 25.5069 6.40142 25.2079V18.2817C6.40142 17.9827 6.64464 17.7394 6.94364 17.7394H27.3126C27.6116 17.7394 27.8548 17.9827 27.8548 18.2817V19.0687C27.8548 19.3113 28.0515 19.508 28.2942 19.508C28.5369 19.508 28.7337 19.3113 28.7337 19.0686V18.2816C28.7337 17.498 28.0962 16.8605 27.3126 16.8605H24.4775V10.3737C24.4775 9.63297 23.9078 9.02312 23.1835 8.95855C24.1326 6.73057 23.7919 4.0775 22.1179 2.17782C21.9575 1.99571 21.6797 1.97819 21.4977 2.13862C21.3156 2.29905 21.2981 2.57679 21.4585 2.75884C23.3884 4.94891 23.2628 8.30177 21.1725 10.3919L14.7039 16.8605H11.4258L9.08801 14.5226C8.91639 14.3511 8.63812 14.3511 8.4665 14.5226C8.29488 14.6943 8.29488 14.9725 8.4665 15.1441L10.1828 16.8605H6.94364C6.16001 16.8605 5.52251 17.498 5.52251 18.2816V20.4238C4.96487 20.8069 4.31811 21.0713 3.59682 21.2106C3.53752 21.2221 3.50113 21.1932 3.48103 21.167C3.4532 21.1307 3.44928 21.0915 3.46926 21.0505C3.87449 20.2178 3.90244 19.2643 3.89611 18.2789C3.89459 18.0373 3.6983 17.8422 3.45666 17.8422H2.6875C2.38855 17.8422 2.14527 17.599 2.14527 17.3V10.3737C2.14527 10.0748 2.38849 9.83148 2.6875 9.83148H3.39935C3.65951 10.2518 3.97147 10.649 4.3358 11.0134L7.16894 13.8466C7.25472 13.9324 7.36722 13.9753 7.47966 13.9753C7.5921 13.9753 7.70461 13.9324 7.79039 13.8466C7.96201 13.675 7.96201 13.3968 7.79039 13.2251L4.95725 10.392C2.77714 8.21189 2.75031 4.67932 4.89743 2.5172C5.94403 1.46333 7.33822 0.881488 8.82311 0.87891H8.83295C10.3142 0.87891 11.7065 1.45559 12.7542 2.50325C12.9258 2.67482 13.2041 2.67482 13.3756 2.50325C14.2787 1.60014 15.4257 1.04983 16.6925 0.911781C17.923 0.777659 19.1761 1.06143 20.2207 1.71065C20.4269 1.83874 20.6978 1.77557 20.8259 1.56938C20.9541 1.36319 20.8908 1.09225 20.6846 0.964164C19.4738 0.211641 18.0225 -0.117364 16.5972 0.0380275C15.2914 0.180352 14.0525 0.727444 13.0653 1.59077C11.8934 0.561623 10.4067 0 8.83301 0H8.82158C7.10138 0.00298829 5.4863 0.676995 4.27387 1.8978C2.3882 3.7966 1.94845 6.60583 2.94437 8.95257H2.6875C1.90392 8.95257 1.26636 9.59008 1.26636 10.3737V17.3C1.26636 18.0836 1.90386 18.7211 2.6875 18.7211H3.0165C3.00718 19.4384 2.9473 20.1146 2.679 20.6659C2.51376 21.0053 2.5539 21.4023 2.78365 21.7019C2.97508 21.9515 3.26547 22.092 3.57162 22.092C3.63514 22.092 3.69935 22.0859 3.76346 22.0736C4.40002 21.9507 4.98877 21.7426 5.52251 21.4529V25.208C5.52251 25.9916 6.16001 26.6291 6.94364 26.6291H22.0704C22.5422 27.9581 23.8607 29.5227 26.2366 29.9816C26.3008 29.994 26.3649 30 26.4284 30C26.7346 30 27.025 29.8594 27.2163 29.6099C27.4461 29.3103 27.4863 28.9133 27.321 28.5738C27.0527 28.0224 26.9929 27.3463 26.9836 26.6291H27.3126C28.0962 26.6291 28.7337 25.9916 28.7337 25.208V20.812C28.7337 20.5693 28.5369 20.3725 28.2942 20.3725ZM21.794 11.0134C22.1579 10.6495 22.4699 10.2522 22.7304 9.83148H23.0564C23.3554 9.83148 23.5986 10.0747 23.5986 10.3737V16.8605H15.9469L21.794 11.0134Z" fill="black"/>
<path d="M17.0061 7.93128C17.0061 8.17403 17.2029 8.37073 17.4456 8.37073H18.2227C18.4654 8.37073 18.6622 8.17403 18.6622 7.93128C18.6622 7.68852 18.4654 7.49182 18.2227 7.49182H17.4456C17.2029 7.49182 17.0061 7.68858 17.0061 7.93128Z" fill="black"/>
<path d="M13.9711 6.88239C13.9711 7.01112 13.8663 7.11583 13.7377 7.11583C13.6089 7.11583 13.5042 7.01112 13.5042 6.88239C13.5042 6.63963 13.3075 6.44293 13.0648 6.44293C12.8221 6.44293 12.6253 6.63963 12.6253 6.88239C12.6253 7.01112 12.5206 7.11583 12.3919 7.11583C12.2632 7.11583 12.1585 7.01112 12.1585 6.88239C12.1585 6.63963 11.9617 6.44293 11.719 6.44293C11.4763 6.44293 11.2795 6.63963 11.2795 6.88239C11.2795 7.49575 11.7785 7.99474 12.3919 7.99474C12.6445 7.99474 12.8778 7.91007 13.0648 7.76757C13.2518 7.91007 13.485 7.99474 13.7377 7.99474C14.351 7.99474 14.85 7.49569 14.85 6.88239C14.85 6.63963 14.6533 6.44293 14.4106 6.44293C14.1679 6.44293 13.9711 6.63963 13.9711 6.88239Z" fill="black"/>
<path d="M8.29566 6.89214C8.53835 6.89214 8.73511 6.69544 8.73511 6.45268V6.10358C8.73511 5.86082 8.53835 5.66412 8.29566 5.66412C8.05296 5.66412 7.8562 5.86082 7.8562 6.10358V6.45268C7.8562 6.69544 8.05296 6.89214 8.29566 6.89214Z" fill="black"/>
<path d="M7.46753 7.93128C7.46753 8.17403 7.66429 8.37073 7.90698 8.37073H8.68417C8.92687 8.37073 9.12362 8.17403 9.12362 7.93128C9.12362 7.68852 8.92687 7.49182 8.68417 7.49182H7.90698C7.66429 7.49182 7.46753 7.68858 7.46753 7.93128Z" fill="black"/>
<path d="M24.4022 23.2972H14.6602C14.4175 23.2972 14.2207 23.4939 14.2207 23.7367C14.2207 23.9794 14.4175 24.1761 14.6602 24.1761H24.4022C24.6449 24.1761 24.8416 23.9794 24.8416 23.7367C24.8416 23.494 24.6449 23.2972 24.4022 23.2972Z" fill="black"/>
<path d="M24.4021 20.1923C24.6448 20.1923 24.8415 19.9956 24.8415 19.7528C24.8416 19.5101 24.6448 19.3134 24.4021 19.3134H11.8298C11.5871 19.3134 11.3904 19.5101 11.3904 19.7528C11.3904 19.9956 11.5871 20.1923 11.8298 20.1923H24.4021Z" fill="black"/>
<path d="M24.4023 21.3054H10.6929C10.4502 21.3054 10.2534 21.5021 10.2534 21.7448C10.2534 21.9875 10.4502 22.1843 10.6929 22.1843H24.4023C24.645 22.1843 24.8417 21.9875 24.8417 21.7448C24.8417 21.5021 24.645 21.3054 24.4023 21.3054Z" fill="black"/>
</svg>
