<svg width="30" height="30" viewBox="0 0 30 30" fill="none" xmlns="http://www.w3.org/2000/svg">
<path d="M23.0566 9.39209H2.68774C2.14557 9.39209 1.70605 9.8316 1.70605 10.3738V17.3C1.70605 17.8422 2.14557 18.2817 2.68774 18.2817H3.4569C3.46282 19.208 3.44026 20.1063 3.07434 20.8582C2.87448 21.2689 3.23196 21.7287 3.68038 21.6421C5.99127 21.1959 7.26153 19.6125 7.60559 18.2817H23.0566C23.5988 18.2817 24.0383 17.8422 24.0383 17.3V10.3738C24.0383 9.8316 23.5988 9.39209 23.0566 9.39209Z" fill="#9EDBF5"/>
<path opacity="0.12" d="M3.25244 21.5496C3.36869 21.6328 3.51822 21.6734 3.68018 21.6422C5.99107 21.1959 7.26132 19.6125 7.60539 18.2817H6.77283C6.44945 19.5326 5.30751 21.0065 3.25244 21.5496ZM23.0564 9.39209H5.17585C5.45194 9.90936 5.80731 10.3949 6.24191 10.8295L13.3348 17.9224C13.486 18.0735 13.6567 18.193 13.8387 18.2817H15.4818C15.6637 18.193 15.8345 18.0735 15.9857 17.9224L23.0786 10.8295C23.1221 10.7859 23.1637 10.7412 23.2056 10.6966V17.3001C23.2056 17.8422 22.7661 18.2817 22.2239 18.2817H23.0564C23.5986 18.2817 24.0381 17.8422 24.0381 17.3001V10.3738C24.0381 9.8316 23.5986 9.39209 23.0564 9.39209Z" fill="black"/>
<path d="M13.0646 2.19248C10.7222 -0.14987 6.92145 -0.144831 4.58531 2.20748C2.25438 4.55458 2.30717 8.36366 4.64618 10.7027L11.7391 17.7957C12.4711 18.5277 13.6579 18.5277 14.39 17.7957L21.4829 10.7027C23.8219 8.36372 23.8747 4.55458 21.5437 2.20748C19.2077 -0.144889 15.4069 -0.14987 13.0646 2.19248Z" fill="#ED6EA4"/>
<path opacity="0.12" d="M21.5441 2.20753C20.6301 1.2872 19.4919 0.726217 18.3045 0.524536C18.9931 0.818678 19.6378 1.24747 20.1982 1.81173C22.5291 4.15883 22.4764 7.96791 20.1373 10.307L13.0444 17.3998C12.725 17.7193 12.3189 17.8992 11.9019 17.9399C12.6376 18.5236 13.7101 18.4758 14.3903 17.7956L21.4832 10.7027C23.8222 8.36371 23.875 4.55463 21.5441 2.20753Z" fill="black"/>
<path d="M8.68441 8.37073H7.90723C7.66453 8.37073 7.46777 8.17403 7.46777 7.93128C7.46777 7.68852 7.66453 7.49182 7.90723 7.49182H8.68441C8.92711 7.49182 9.12387 7.68852 9.12387 7.93128C9.12387 8.17403 8.92711 8.37073 8.68441 8.37073Z" fill="white"/>
<path d="M18.223 8.37073H17.4458C17.2031 8.37073 17.0063 8.17403 17.0063 7.93128C17.0063 7.68852 17.2031 7.49182 17.4458 7.49182H18.223C18.4657 7.49182 18.6624 7.68852 18.6624 7.93128C18.6624 8.17403 18.4657 8.37073 18.223 8.37073Z" fill="white"/>
<path d="M27.3124 17.3H6.9436C6.40143 17.3 5.96191 17.7396 5.96191 18.2817V25.2079C5.96191 25.7501 6.40143 26.1896 6.9436 26.1896H22.3946C22.7387 27.5204 24.0089 29.1038 26.3198 29.55C26.7682 29.6366 27.1256 29.1767 26.9258 28.7661C26.5599 28.0142 26.5374 27.1159 26.5433 26.1896H27.3124C27.8546 26.1896 28.2941 25.7501 28.2941 25.2079V18.2817C28.2941 17.7396 27.8546 17.3 27.3124 17.3Z" fill="#EAEAEA"/>
<path opacity="0.12" d="M27.3124 17.3H26.4798C27.022 17.3 27.4615 17.7396 27.4615 18.2817V25.2079C27.4615 25.7501 27.022 26.1896 26.4798 26.1896H25.7107C25.7048 27.1159 25.7273 28.0142 26.0932 28.7661C26.2209 29.0284 26.1206 29.3102 25.9149 29.4574C26.0462 29.4921 26.181 29.5232 26.3198 29.55C26.7682 29.6366 27.1256 29.1767 26.9258 28.7661C26.5599 28.0142 26.5373 27.1159 26.5432 26.1896H27.3124C27.8546 26.1896 28.2941 25.7501 28.2941 25.2079V18.2817C28.2941 17.7396 27.8546 17.3 27.3124 17.3Z" fill="black"/>
<path d="M28.2945 19.508C28.5372 19.508 28.7339 19.3113 28.7339 19.0686V18.2816C28.7339 17.498 28.0964 16.8605 27.3128 16.8605H24.4778V10.3737C24.4778 9.63297 23.908 9.02312 23.1837 8.95855C24.1328 6.73057 23.7922 4.0775 22.1181 2.17782C21.9577 1.99571 21.68 1.97819 21.4979 2.13862C21.3158 2.29905 21.2983 2.57679 21.4588 2.75884C23.3886 4.94891 23.263 8.30177 21.1728 10.3919L14.7041 16.8605H11.4261L9.08825 14.5226C8.91663 14.3511 8.63837 14.3511 8.46675 14.5226C8.29513 14.6943 8.29513 14.9725 8.46675 15.1441L10.1831 16.8605H6.94389C6.16025 16.8605 5.52275 17.498 5.52275 18.2816V20.4238C4.96511 20.8069 4.31835 21.0713 3.59706 21.2106C3.53776 21.2221 3.50138 21.1932 3.48128 21.167C3.45345 21.1307 3.44952 21.0915 3.4695 21.0505C3.87474 20.2178 3.90269 19.2643 3.89636 18.2789C3.89483 18.0373 3.69854 17.8422 3.4569 17.8422H2.68774C2.38879 17.8422 2.14551 17.599 2.14551 17.3V10.3737C2.14551 10.0748 2.38873 9.83148 2.68774 9.83148H3.3996C3.65976 10.2518 3.97171 10.649 4.33605 11.0134L7.16918 13.8466C7.25496 13.9324 7.36747 13.9753 7.47991 13.9753C7.59235 13.9753 7.70485 13.9324 7.79063 13.8466C7.96225 13.675 7.96225 13.3968 7.79063 13.2251L4.95749 10.392C2.77739 8.21189 2.75055 4.67932 4.89767 2.5172C5.94428 1.46333 7.33846 0.881488 8.82335 0.87891H8.83319C10.3144 0.87891 11.7068 1.45559 12.7544 2.50325C12.926 2.67482 13.2043 2.67482 13.3759 2.50325C14.279 1.60014 15.4259 1.04983 16.6927 0.911781C17.9232 0.777659 19.1763 1.06143 20.2209 1.71065C20.4271 1.83874 20.6981 1.77557 20.8262 1.56938C20.9543 1.36319 20.891 1.09225 20.6849 0.964164C19.4741 0.211641 18.0227 -0.117364 16.5975 0.0380275C15.2916 0.180352 14.0527 0.727444 13.0655 1.59077C11.8936 0.561623 10.4069 0 8.83325 0H8.82183C7.10162 0.00298829 5.48654 0.676995 4.27411 1.8978C2.38844 3.7966 1.94869 6.60583 2.94462 8.95257H2.68774C1.90416 8.95257 1.2666 9.59008 1.2666 10.3737V17.3C1.2666 18.0836 1.9041 18.7211 2.68774 18.7211H3.01675C3.00743 19.4384 2.94755 20.1146 2.67924 20.6659C2.51401 21.0053 2.55415 21.4023 2.78389 21.7019C2.97532 21.9515 3.26571 22.092 3.57186 22.092C3.63538 22.092 3.6996 22.0859 3.7637 22.0736C4.40027 21.9507 4.98902 21.7426 5.52275 21.4529V25.208C5.52275 25.9916 6.16025 26.6291 6.94389 26.6291H22.0706C22.5425 27.9581 23.8609 29.5227 26.2368 29.9816C26.301 29.994 26.3652 30 26.4287 30C26.7348 30 27.0252 29.8594 27.2166 29.6099C27.4464 29.3103 27.4865 28.9133 27.3213 28.5738C27.053 28.0224 26.9931 27.3463 26.9839 26.6291H27.3129C28.0965 26.6291 28.734 25.9916 28.734 25.208V20.812C28.734 20.5693 28.5372 20.3725 28.2945 20.3725C28.0518 20.3725 27.8551 20.5693 27.8551 20.812V25.2079C27.8551 25.5069 27.6119 25.7501 27.3129 25.7501H26.5437C26.3021 25.7501 26.1058 25.9451 26.1042 26.1868C26.0979 27.1721 26.1258 28.1256 26.5311 28.9584C26.556 29.0095 26.5384 29.05 26.5193 29.0749C26.4992 29.1011 26.4627 29.1299 26.4035 29.1185C24.2302 28.6988 23.1151 27.2191 22.8205 26.0796C22.7703 25.8856 22.5953 25.7501 22.395 25.7501H6.94389C6.64488 25.7501 6.40166 25.5069 6.40166 25.2079V18.2817C6.40166 17.9827 6.64488 17.7394 6.94389 17.7394H27.3128C27.6118 17.7394 27.855 17.9827 27.855 18.2817V19.0687C27.855 19.3113 28.0518 19.508 28.2945 19.508ZM23.5989 16.8605H15.9471L21.7942 11.0134C22.1582 10.6495 22.4702 10.2522 22.7306 9.83148H23.0566C23.3557 9.83148 23.5989 10.0747 23.5989 10.3737V16.8605V16.8605ZM24.4024 23.2973H14.6604C14.4177 23.2973 14.221 23.494 14.221 23.7367C14.221 23.9794 14.4177 24.1762 14.6604 24.1762H24.4024C24.6451 24.1762 24.8419 23.9794 24.8419 23.7367C24.8419 23.494 24.6451 23.2973 24.4024 23.2973ZM24.4024 21.3054H10.693C10.4503 21.3054 10.2536 21.5021 10.2536 21.7448C10.2536 21.9875 10.4503 22.1843 10.693 22.1843H24.4024C24.6451 22.1843 24.8419 21.9875 24.8419 21.7448C24.8419 21.5021 24.6451 21.3054 24.4024 21.3054ZM7.85637 6.10362V6.45272C7.85637 6.69548 8.05313 6.89218 8.29583 6.89218C8.53852 6.89218 8.73528 6.69548 8.73528 6.45272V6.10362C8.73528 5.86086 8.53852 5.66416 8.29583 5.66416C8.05313 5.66416 7.85637 5.86086 7.85637 6.10362ZM13.9715 6.88239C13.9715 7.01112 13.8668 7.11583 13.7381 7.11583C13.6094 7.11583 13.5047 7.01112 13.5047 6.88239C13.5047 6.63964 13.3079 6.44294 13.0652 6.44294C12.8225 6.44294 12.6257 6.63964 12.6257 6.88239C12.6257 7.01112 12.521 7.11583 12.3923 7.11583C12.2636 7.11583 12.1589 7.01112 12.1589 6.88239C12.1589 6.63964 11.9621 6.44294 11.7194 6.44294C11.4767 6.44294 11.28 6.63964 11.28 6.88239C11.28 7.49575 11.7789 7.99474 12.3923 7.99474C12.645 7.99474 12.8782 7.91007 13.0652 7.76757C13.2522 7.91007 13.4854 7.99474 13.7381 7.99474C14.3515 7.99474 14.8504 7.49569 14.8504 6.88239C14.8504 6.63964 14.6537 6.44294 14.411 6.44294C14.1683 6.44294 13.9715 6.63964 13.9715 6.88239ZM17.395 6.10362V6.45272C17.395 6.69548 17.5918 6.89218 17.8345 6.89218C18.0772 6.89218 18.2739 6.69548 18.2739 6.45272V6.10362C18.2739 5.86086 18.0772 5.66416 17.8345 5.66416C17.5918 5.66416 17.395 5.86086 17.395 6.10362ZM24.4024 19.3134H11.8302C11.5875 19.3134 11.3907 19.5101 11.3907 19.7529C11.3907 19.9956 11.5875 20.1923 11.8302 20.1923H24.4024C24.6451 20.1923 24.8418 19.9956 24.8418 19.7529C24.8419 19.5102 24.6451 19.3134 24.4024 19.3134Z" fill="black"/>
</svg>
