<svg width="30" height="30" viewBox="0 0 30 30" fill="none" xmlns="http://www.w3.org/2000/svg">
<path d="M14.6373 8.68603C12.1268 6.17545 8.0529 6.18079 5.54901 8.70209C3.05068 11.2178 3.10722 15.3005 5.61428 17.8076L13.2167 25.41C14.0014 26.1947 15.2734 26.1947 16.058 25.41L23.6605 17.8076C26.1675 15.3006 26.2241 11.2178 23.7257 8.70209C21.2218 6.18073 17.148 6.1754 14.6373 8.68603Z" fill="#ED6EA4"/>
<path opacity="0.12" d="M23.7257 8.70208C22.746 7.71559 21.5261 7.11436 20.2535 6.89821C20.9916 7.2135 21.6826 7.67305 22.2833 8.27786C24.7816 10.7935 24.7251 14.8763 22.2181 17.3834L14.6155 24.9858C14.2731 25.3282 13.8379 25.521 13.3909 25.5646C14.1795 26.1902 15.329 26.1389 16.058 25.41L23.6605 17.8075C26.1675 15.3005 26.2241 11.2178 23.7257 8.70208Z" fill="black"/>
<path d="M9.94162 15.2765H9.10859C8.86583 15.2765 8.66919 15.0798 8.66919 14.8371C8.66919 14.5943 8.86589 14.3977 9.10859 14.3977H9.94162C10.1844 14.3977 10.381 14.5944 10.381 14.8371C10.3811 15.0798 10.1844 15.2765 9.94162 15.2765Z" fill="white"/>
<path d="M20.1655 15.2765H19.3325C19.0897 15.2765 18.8931 15.0798 18.8931 14.8371C18.8931 14.5943 19.0898 14.3977 19.3325 14.3977H20.1655C20.4082 14.3977 20.6049 14.5944 20.6049 14.8371C20.6049 15.0798 20.4082 15.2765 20.1655 15.2765Z" fill="white"/>
<path d="M26.2882 15.9287C27.4189 15.9287 28.3355 15.0121 28.3355 13.8814C28.3355 12.7508 27.4189 11.8342 26.2882 11.8342C25.1576 11.8342 24.241 12.7508 24.241 13.8814C24.241 15.0121 25.1576 15.9287 26.2882 15.9287Z" fill="#FFABCA"/>
<g opacity="0.1">
<path opacity="0.1" d="M25.758 13.5047C26.0007 13.5047 26.1974 13.308 26.1974 13.0653C26.1974 12.8226 26.0007 12.6259 25.758 12.6259C25.5153 12.6259 25.3186 12.8226 25.3186 13.0653C25.3186 13.308 25.5153 13.5047 25.758 13.5047Z" fill="black"/>
<path opacity="0.1" d="M27.5156 13.7127C27.7582 13.7127 27.955 13.516 27.955 13.2733C27.955 13.0306 27.7582 12.8339 27.5156 12.8339C27.2729 12.8339 27.0762 13.0306 27.0762 13.2733C27.0762 13.516 27.2729 13.7127 27.5156 13.7127Z" fill="black"/>
<path opacity="0.1" d="M26.6367 15.2764C26.8793 15.2764 27.0761 15.0797 27.0761 14.837C27.0761 14.5944 26.8793 14.3976 26.6367 14.3976C26.394 14.3976 26.1973 14.5944 26.1973 14.837C26.1973 15.0797 26.394 15.2764 26.6367 15.2764Z" fill="black"/>
</g>
<path d="M6.53853 26.1979H5.47529V25.1347C5.47529 24.892 5.27859 24.6953 5.03589 24.6953C4.79314 24.6953 4.59649 24.892 4.59649 25.1347V26.1979H3.53313C3.29038 26.1979 3.09373 26.3946 3.09373 26.6373C3.09373 26.8801 3.29043 27.0767 3.53313 27.0767H4.59638V28.1399C4.59638 28.3827 4.79308 28.5793 5.03577 28.5793C5.27853 28.5793 5.47517 28.3826 5.47517 28.1399V27.0767H6.53842C6.78117 27.0767 6.97781 26.88 6.97781 26.6373C6.97793 26.3946 6.78129 26.1979 6.53853 26.1979ZM22.7384 3.80216H23.8016V4.86541C23.8016 5.10816 23.9983 5.3048 24.241 5.3048C24.4837 5.3048 24.6804 5.1081 24.6804 4.86541V3.80216H25.7436C25.9864 3.80216 26.183 3.60546 26.183 3.36276C26.183 3.12007 25.9863 2.92337 25.7436 2.92337H24.6804V1.85994C24.6804 1.61719 24.4836 1.42055 24.241 1.42055C23.9982 1.42055 23.8016 1.61725 23.8016 1.85994V2.92325H22.7384C22.4956 2.92325 22.299 3.11995 22.299 3.36265C22.299 3.60534 22.4957 3.80216 22.7384 3.80216ZM1.16101 5.8069H2.22432V6.87014C2.22432 7.1129 2.42102 7.30954 2.66371 7.30954C2.90641 7.30954 3.10311 7.11284 3.10311 6.87014V5.8069H4.16636C4.40911 5.8069 4.60575 5.6102 4.60575 5.3675C4.60575 5.12474 4.40905 4.9281 4.16636 4.9281H3.10317V3.86474C3.10317 3.62198 2.90641 3.42534 2.66377 3.42534C2.42102 3.42534 2.22438 3.62204 2.22438 3.86474V4.92798H1.16101C0.918315 4.92798 0.721615 5.12468 0.721615 5.36738C0.721615 5.61019 0.918315 5.8069 1.16101 5.8069ZM9.96464 13.2523V12.8781C9.96464 12.6354 9.76794 12.4387 9.52524 12.4387C9.28249 12.4387 9.08585 12.6354 9.08585 12.8781V13.2523C9.08585 13.4951 9.28255 13.6917 9.52524 13.6917C9.76794 13.6917 9.96464 13.495 9.96464 13.2523ZM29.2938 23.1741H28.2305V22.1109C28.2305 21.8681 28.0338 21.6715 27.7911 21.6715C27.5483 21.6715 27.3517 21.8682 27.3517 22.1109V23.1741H26.2885C26.0457 23.1741 25.8491 23.3708 25.8491 23.6135C25.8491 23.8563 26.0458 24.0529 26.2885 24.0529H27.3517V25.1161C27.3517 25.3589 27.5484 25.5555 27.7911 25.5555C28.0339 25.5555 28.2305 25.3588 28.2305 25.1161V24.0529H29.2937C29.5365 24.0529 29.7331 23.8562 29.7331 23.6135C29.7332 23.3708 29.5365 23.1741 29.2938 23.1741ZM28.775 13.8814C28.775 13.4565 28.6677 13.0561 28.4789 12.7059C29.7373 11.5175 30.2185 10.4852 29.9089 9.63478C29.338 8.06622 26.4052 8.03897 23.9568 8.31349C22.6726 7.06116 20.9828 6.3708 19.185 6.3677H19.1729C17.4849 6.3677 15.8904 6.97356 14.637 8.08298C13.3835 6.97344 11.7893 6.3677 10.1011 6.3677H10.0889C8.25358 6.37092 6.53039 7.08999 5.23693 8.39253C4.47069 9.1641 3.91569 10.0786 3.58733 11.1108C3.51379 11.3421 3.64165 11.5892 3.87292 11.6628C4.10407 11.7361 4.35128 11.6085 4.42487 11.3772C4.71052 10.4792 5.19351 9.68336 5.86048 9.01175C6.98818 7.8762 8.49042 7.2493 10.0904 7.24649H10.1011C11.6972 7.24649 13.1975 7.86782 14.3263 8.99675C14.4088 9.07914 14.5205 9.12543 14.6371 9.12543C14.7536 9.12543 14.8654 9.07914 14.9479 8.99669C16.0768 7.86776 17.5769 7.24649 19.173 7.24649H19.1836C20.7837 7.2493 22.286 7.8762 23.4137 9.01175C24.1768 9.78021 24.7072 10.7323 24.9609 11.7803C24.265 12.2215 23.8018 12.9981 23.8018 13.8814C23.8018 14.2073 23.8655 14.5185 23.98 14.804C21.7583 16.0732 19.0768 17.2923 16.1938 18.3416C13.6481 19.2682 11.1451 19.9899 8.88528 20.4574L5.92482 17.4969C4.71327 16.2853 4.06675 14.6098 4.15095 12.8999C4.16284 12.6574 3.97604 12.4513 3.7337 12.4394C3.49024 12.4273 3.2851 12.6143 3.27321 12.8566C3.22516 13.8336 3.38547 14.8006 3.73047 15.6967C1.68707 17.0642 -0.47253 18.9399 0.0908511 20.4878C0.502181 21.6178 2.15107 21.9406 3.90051 21.9406C4.51915 21.9405 5.15038 21.9002 5.74382 21.8409C6.63234 21.7521 7.58936 21.6071 8.59635 21.4114L12.9059 25.7209C13.3684 26.1833 13.9832 26.438 14.6373 26.438C15.2913 26.438 15.9062 26.1833 16.3687 25.7209L19.219 22.8706C19.3906 22.699 19.3906 22.4208 19.219 22.2492C19.0473 22.0776 18.7691 22.0776 18.5975 22.2492L15.7473 25.0994C15.4508 25.396 15.0566 25.5592 14.6375 25.5592C14.2182 25.5592 13.8239 25.3959 13.5276 25.0994L9.62544 21.1974C11.7775 20.7214 14.1198 20.032 16.4947 19.1676C19.4367 18.0968 22.1758 16.8497 24.4464 15.5498C24.4933 15.6016 24.5426 15.651 24.5936 15.6986C24.292 16.3685 23.8746 16.9723 23.3499 17.497L19.5876 21.2594C19.416 21.4311 19.416 21.7093 19.5876 21.8809C19.6734 21.9667 19.7859 22.0096 19.8984 22.0096C20.0108 22.0096 20.1233 21.9667 20.2092 21.8809L23.9715 18.1186C24.5405 17.5495 24.9989 16.8987 25.3392 16.1794C25.632 16.3009 25.9527 16.3683 26.2889 16.3683C27.6595 16.3681 28.775 15.2525 28.775 13.8814ZM5.65628 20.9664C2.48623 21.2832 1.12925 20.7716 0.916616 20.1872C0.785541 19.8271 1.01705 19.2752 1.56836 18.6331C2.12113 17.9894 2.9926 17.259 4.10284 16.5058C4.42018 17.0934 4.82284 17.6378 5.30331 18.1184L7.84284 20.6579C7.07725 20.7937 6.34523 20.8975 5.65628 20.9664ZM24.6683 9.12613C27.5944 8.87423 28.8733 9.35927 29.0831 9.93543C29.2522 10.3998 28.834 11.1474 27.9295 12.0156C27.4913 11.6297 26.9168 11.3948 26.2883 11.3948C26.1154 11.3948 25.9466 11.4126 25.7837 11.4463C25.5629 10.6047 25.1848 9.81994 24.6683 9.12613ZM24.6805 13.8814C24.6805 12.9948 25.4018 12.2736 26.2883 12.2736C27.1749 12.2736 27.8962 12.9949 27.8962 13.8814C27.8962 14.768 27.1749 15.4893 26.2883 15.4893C25.4018 15.4893 24.6805 14.768 24.6805 13.8814ZM20.1885 13.2523V12.8781C20.1885 12.6354 19.9917 12.4387 19.7491 12.4387C19.5063 12.4387 19.3097 12.6354 19.3097 12.8781V13.2523C19.3097 13.4951 19.5064 13.6917 19.7491 13.6917C19.9917 13.6917 20.1885 13.495 20.1885 13.2523ZM14.6372 14.6216C14.8354 14.7792 15.086 14.8736 15.3585 14.8736C15.9984 14.8736 16.5191 14.3529 16.5191 13.713C16.5191 13.4702 16.3224 13.2736 16.0797 13.2736C15.8369 13.2736 15.6403 13.4703 15.6403 13.713C15.6403 13.8684 15.5139 13.9948 15.3585 13.9948C15.2031 13.9948 15.0766 13.8684 15.0766 13.713C15.0766 13.4702 14.8799 13.2736 14.6372 13.2736C14.3945 13.2736 14.1978 13.4703 14.1978 13.713C14.1978 13.8684 14.0714 13.9948 13.9159 13.9948C13.7605 13.9948 13.634 13.8684 13.634 13.713C13.634 13.4702 13.4373 13.2736 13.1946 13.2736C12.9519 13.2736 12.7552 13.4703 12.7552 13.713C12.7552 14.3529 13.2759 14.8736 13.9159 14.8736C14.1882 14.8735 14.4389 14.7792 14.6372 14.6216Z" fill="black"/>
</svg>
