<svg width="30" height="30" viewBox="0 0 30 30" fill="none" xmlns="http://www.w3.org/2000/svg">
<path d="M27.5246 15.7855C27.7754 15.7855 27.9786 15.5823 27.9786 15.3315C27.9786 15.0807 27.7754 14.8774 27.5246 14.8774C27.2738 14.8774 27.0706 15.0807 27.0706 15.3315C27.0706 15.5823 27.2738 15.7855 27.5246 15.7855Z" fill="black"/>
<path d="M1.19965 6.00049H2.2984V7.09918C2.2984 7.35002 2.50165 7.55322 2.75244 7.55322C3.00323 7.55322 3.20648 7.34996 3.20648 7.09918V6.00049H4.30517C4.55602 6.00049 4.75921 5.79723 4.75921 5.54645C4.75921 5.29566 4.55596 5.0924 4.30517 5.0924H3.20654V3.99365C3.20654 3.74281 3.00323 3.53961 2.7525 3.53961C2.50165 3.53961 2.29846 3.74287 2.29846 3.99365V5.09234H1.19965C0.948862 5.09234 0.745605 5.2956 0.745605 5.54639C0.745605 5.79717 0.948862 6.00049 1.19965 6.00049Z" fill="black"/>
<path d="M23.4963 3.92883H24.595V5.02752C24.595 5.27837 24.7982 5.48156 25.049 5.48156C25.2998 5.48156 25.5031 5.27831 25.5031 5.02752V3.92883H26.6017C26.8526 3.92883 27.0558 3.72558 27.0558 3.47479C27.0558 3.22394 26.8525 3.02075 26.6017 3.02075H25.5031V1.922C25.5031 1.67115 25.2997 1.46796 25.049 1.46796C24.7982 1.46796 24.595 1.67121 24.595 1.922V3.02069H23.4963C23.2454 3.02069 23.0422 3.22394 23.0422 3.47473C23.0422 3.72558 23.2455 3.92883 23.4963 3.92883Z" fill="black"/>
<path d="M6.7564 27.0712H5.65771V25.9725C5.65771 25.7217 5.45446 25.5184 5.20367 25.5184C4.95283 25.5184 4.74963 25.7218 4.74963 25.9725V27.0712H3.65082C3.39997 27.0712 3.19678 27.2744 3.19678 27.5252C3.19678 27.7761 3.40003 27.9793 3.65082 27.9793H4.74951V29.0779C4.74951 29.3288 4.95276 29.532 5.20355 29.532C5.45434 29.532 5.65759 29.3287 5.65759 29.0779V27.9793H6.75628C7.00713 27.9793 7.21032 27.776 7.21032 27.5252C7.21044 27.2744 7.00725 27.0712 6.7564 27.0712Z" fill="black"/>
<path d="M26.6164 13.9547C26.8672 13.9547 27.0704 13.7514 27.0704 13.5006C27.0704 13.2499 26.8672 13.0466 26.6164 13.0466C26.3656 13.0466 26.1624 13.2499 26.1624 13.5006C26.1624 13.7514 26.3656 13.9547 26.6164 13.9547Z" fill="black"/>
<path d="M20.4072 14.1481C20.658 14.1481 20.8612 13.9448 20.8612 13.694V13.3074C20.8612 13.0565 20.6579 12.8533 20.4072 12.8533C20.1563 12.8533 19.9531 13.0566 19.9531 13.3074V13.694C19.9531 13.9448 20.1564 14.1481 20.4072 14.1481Z" fill="black"/>
<path d="M30.2702 23.9466H29.1715V22.8479C29.1715 22.5971 28.9683 22.3939 28.7175 22.3939C28.4667 22.3939 28.2634 22.5971 28.2634 22.8479V23.9466H27.1647C26.9139 23.9466 26.7107 24.1498 26.7107 24.4006C26.7107 24.6514 26.9139 24.8547 27.1647 24.8547H28.2633V25.9534C28.2633 26.2042 28.4666 26.4075 28.7173 26.4075C28.9681 26.4075 29.1714 26.2042 29.1714 25.9534V24.8547H30.2701C30.5209 24.8547 30.7241 24.6514 30.7241 24.4006C30.7242 24.1499 30.521 23.9466 30.2702 23.9466Z" fill="black"/>
<path d="M19.5229 15.3317C19.5229 15.5825 19.7262 15.7857 19.977 15.7857H20.8378C21.0886 15.7857 21.2918 15.5825 21.2918 15.3317C21.2918 15.0808 21.0886 14.8776 20.8378 14.8776H19.977C19.7262 14.8776 19.5229 15.0809 19.5229 15.3317Z" fill="black"/>
<path d="M8.95801 15.3317C8.95801 15.5825 9.16126 15.7857 9.41205 15.7857H10.2728C10.5237 15.7857 10.7269 15.5825 10.7269 15.3317C10.7269 15.0808 10.5236 14.8776 10.2728 14.8776H9.41205C9.16132 14.8776 8.95801 15.0809 8.95801 15.3317Z" fill="black"/>
<path d="M29.7341 14.3441C29.7341 13.905 29.6232 13.4913 29.4282 13.1295C30.7285 11.9014 31.2257 10.8348 30.9058 9.95594C30.3159 8.33509 27.2853 8.30694 24.7553 8.5906C23.4284 7.29653 21.6822 6.58317 19.8245 6.57996H19.812C18.0677 6.57996 16.42 7.20601 15.1249 8.35241C13.8296 7.20589 12.1822 6.57996 10.4378 6.57996H10.4252C8.5287 6.58329 6.74807 7.32632 5.41149 8.67228C4.61972 9.46956 4.04621 10.4146 3.70691 11.4812C3.63092 11.7202 3.76303 11.9755 4.00201 12.0515C4.24087 12.1273 4.49632 11.9954 4.57237 11.7564C4.86753 10.8285 5.36662 10.0061 6.05583 9.31214C7.22112 8.13874 8.77343 7.49095 10.4268 7.48804H10.4378C12.0871 7.48804 13.6374 8.13008 14.8039 9.29664C14.8891 9.38177 15.0045 9.4296 15.125 9.4296C15.2454 9.4296 15.3609 9.38177 15.4461 9.29658C16.6126 8.13002 18.1628 7.48804 19.8121 7.48804H19.8231C21.4765 7.49095 23.0288 8.13874 24.1942 9.31214C24.9827 10.1062 25.5307 11.09 25.7929 12.173C25.0738 12.6289 24.5952 13.4314 24.5952 14.3441C24.5952 14.6809 24.661 15.0024 24.7793 15.2975C22.4834 16.609 19.7125 17.8687 16.7336 18.9529C14.1031 19.9104 11.5166 20.6562 9.18146 21.1393L6.12231 18.0801C4.87038 16.8282 4.2023 15.0967 4.28931 13.3299C4.3016 13.0793 4.10858 12.8664 3.85815 12.854C3.60658 12.8415 3.39461 13.0348 3.38231 13.2852C3.33267 14.2947 3.49832 15.2939 3.85482 16.2199C1.7433 17.6329 -0.488281 19.5712 0.0938795 21.1707C0.51892 22.3384 2.22278 22.6719 4.03053 22.6719C4.66979 22.6719 5.32206 22.6302 5.93528 22.5689C6.85342 22.4771 7.84234 22.3273 8.8829 22.1251L13.3361 26.5782C13.814 27.0561 14.4494 27.3193 15.1252 27.3193C15.801 27.3193 16.4363 27.056 16.9143 26.5782L19.8595 23.633C20.0369 23.4556 20.0369 23.1682 19.8595 22.9908C19.6821 22.8135 19.3947 22.8135 19.2174 22.9908L16.2721 25.9361C15.9658 26.2425 15.5585 26.4112 15.1253 26.4112C14.6921 26.4112 14.2847 26.2424 13.9784 25.9361L9.94623 21.9039C12.1701 21.4121 14.5904 20.6997 17.0445 19.8065C20.0843 18.7001 22.9147 17.4115 25.2612 16.0682C25.3096 16.1216 25.3606 16.1727 25.4133 16.2218C25.1017 16.9141 24.6704 17.538 24.1282 18.0802L20.2404 21.968C20.0631 22.1454 20.0631 22.4328 20.2404 22.6102C20.3291 22.6989 20.4454 22.7432 20.5616 22.7432C20.6778 22.7432 20.794 22.6989 20.8827 22.6102L24.7705 18.7224C25.3585 18.1344 25.8322 17.4619 26.1838 16.7187C26.4864 16.8442 26.8177 16.9139 27.1652 16.9139C28.5814 16.9137 29.7341 15.761 29.7341 14.3441ZM5.84476 21.6652C2.56905 21.9925 1.16677 21.4639 0.947109 20.86C0.811665 20.4879 1.05089 19.9176 1.62057 19.2542C2.19178 18.5889 3.09229 17.8342 4.23954 17.0559C4.56746 17.6632 4.98354 18.2256 5.48003 18.7222L8.1042 21.3464C7.31309 21.4868 6.55668 21.5941 5.84476 21.6652ZM25.4905 9.43027C28.5141 9.16998 29.8357 9.67119 30.0525 10.2665C30.2271 10.7464 29.795 11.5188 28.8604 12.416C28.4076 12.0173 27.814 11.7745 27.1645 11.7745C26.9859 11.7745 26.8114 11.7929 26.6431 11.8278C26.415 10.9582 26.0243 10.1473 25.4905 9.43027ZM25.5031 14.3441C25.5031 13.428 26.2484 12.6827 27.1646 12.6827C27.6676 12.6827 28.119 12.9078 28.4239 13.2622C28.1772 13.267 27.9787 13.468 27.9787 13.7158C27.9787 13.9666 28.182 14.1698 28.4328 14.1698C28.5775 14.1698 28.7061 14.1019 28.7892 13.9965C28.8132 14.1087 28.8261 14.2249 28.8261 14.3441C28.8261 15.2602 28.0808 16.0056 27.1646 16.0056C26.2484 16.0056 25.5031 15.2602 25.5031 14.3441Z" fill="black"/>
<path d="M9.84271 14.1481C10.0936 14.1481 10.2968 13.9448 10.2968 13.694V13.3074C10.2968 13.0565 10.0935 12.8533 9.84271 12.8533C9.59193 12.8533 9.38867 13.0566 9.38867 13.3074V13.694C9.38867 13.9448 9.59187 14.1481 9.84271 14.1481Z" fill="black"/>
<path d="M15.1251 15.109C15.3299 15.2719 15.5889 15.3694 15.8704 15.3694C16.5317 15.3694 17.0697 14.8313 17.0697 14.1701C17.0697 13.9193 16.8665 13.7161 16.6157 13.7161C16.3649 13.7161 16.1616 13.9193 16.1616 14.1701C16.1616 14.3307 16.031 14.4613 15.8704 14.4613C15.7098 14.4613 15.5792 14.3307 15.5792 14.1701C15.5792 13.9193 15.3759 13.7161 15.1251 13.7161C14.8743 13.7161 14.6711 13.9193 14.6711 14.1701C14.6711 14.3307 14.5404 14.4613 14.3798 14.4613C14.2192 14.4613 14.0885 14.3307 14.0885 14.1701C14.0885 13.9193 13.8852 13.7161 13.6345 13.7161C13.3837 13.7161 13.1804 13.9193 13.1804 14.1701C13.1804 14.8314 13.7184 15.3694 14.3798 15.3694C14.6612 15.3693 14.9202 15.2719 15.1251 15.109Z" fill="black"/>
</svg>
